<svg width="388" height="122" viewBox="0 0 388 122" fill="none" xmlns="http://www.w3.org/2000/svg">
<mask id="path-1-outside-1_72_148" maskUnits="userSpaceOnUse" x="0" y="0" width="388" height="122" fill="black">
<rect fill="white" width="388" height="122"/>
<path d="M21.9875 116.541C11.9724 116.541 4.19953 110.114 4.19953 99.6501C4.19953 73.4914 40.3733 83.5064 49.043 66.6154C52.1821 60.6362 55.3211 55.1055 62.0477 54.3581L61.8982 53.9097C55.3211 54.8066 50.3884 50.6212 46.3524 45.2399C43.5123 41.503 39.327 38.9618 33.4973 38.9618C21.838 39.1113 25.4255 49.2759 25.4255 55.8529C25.4255 60.4867 21.0906 62.5794 16.9052 62.5794C12.1219 62.5794 8.23545 60.0383 8.23545 54.8066C8.23545 45.5389 18.8484 37.1681 33.4973 37.1681C52.9295 37.0186 67.5784 44.941 67.5784 65.569V104.284C67.5784 109.516 71.0164 113.103 76.2481 111.758C72.5112 114.598 68.6247 115.943 65.0372 115.943C57.8623 115.943 51.8831 110.711 51.1357 100.846C45.605 109.217 39.4764 116.541 21.9875 116.541ZM21.539 91.5782C20.0442 98.0058 16.7557 103.985 10.3281 105.928L10.4776 106.377C11.524 106.078 12.4208 105.928 13.3177 105.928C18.4 105.928 22.5854 110.114 27.9666 111.608C37.2343 114.149 51.8831 100.099 51.8831 85.1507C51.8831 79.7694 51.5842 74.2388 51.5842 68.8575C41.4196 81.7127 25.1265 76.7799 21.539 91.5782ZM74.5793 7.57139C83.0996 7.12295 91.4704 6.0766 99.6917 4.7313V58.992C104.027 48.6779 111.351 38.3639 123.907 38.3639C139.303 38.3639 154.849 55.4045 154.849 78.4241C154.849 98.4542 143.788 117.737 124.954 117.737C121.516 117.737 117.779 116.99 113.892 115.644C106.568 113.103 103.578 108.619 100.29 102.789L84.4449 117.139H83.2491V20.2771C83.2491 13.7 81.4553 8.9167 74.5793 7.57139ZM99.8412 78.2747C99.8412 90.3824 100.589 108.918 114.49 113.851C116.732 114.598 118.675 115.046 120.469 115.046C136.314 115.046 135.716 85.8981 133.773 68.5586C133.175 61.832 136.762 56.4508 143.19 54.6571V54.2086C141.994 54.5076 140.798 54.6571 139.602 54.6571C134.67 54.6571 130.783 51.817 127.943 47.0337C125.551 43.1472 122.711 40.6061 119.273 40.6061C115.536 40.6061 111.052 43.4462 106.119 50.7706C100.14 59.7393 99.8412 67.6617 99.8412 78.2747ZM161.714 77.8262C161.714 57.7961 174.718 38.6629 196.542 37.766C218.515 36.8692 232.566 57.7961 232.566 77.8262C232.566 97.1089 218.216 117.587 197.289 117.587C175.914 117.587 161.714 97.4079 161.714 77.8262ZM170.981 57.3477C177.558 58.693 181.744 63.9247 181.295 70.6513L180.996 77.8262C180.996 90.5319 178.754 115.644 197.289 115.644C204.165 115.644 207.454 112.505 209.397 106.975C211.789 100.696 216.423 96.9595 223.149 98.0058V97.5574C216.572 96.511 212.387 91.5782 212.686 84.8517L213.134 77.8262C213.134 65.4195 215.227 38.8124 196.542 39.5598C191.759 39.8587 188.171 43.8946 185.78 48.8274C182.79 54.8066 177.558 58.2446 170.981 56.8993V57.3477ZM234.481 41.503V41.204C242.852 40.6061 251.223 40.0082 259.594 39.2608V91.2793C259.594 100.099 260.192 111.01 271.702 111.01C280.371 111.01 289.788 94.1194 289.788 85.7486V64.0742C289.788 57.3477 294.123 51.518 300.551 49.4253L300.401 48.9769C298.608 49.5748 296.814 49.8738 295.02 49.8738C290.386 49.8738 285.902 47.7811 282.912 43.8946L281.119 41.503V41.204C289.49 40.6061 297.86 40.0082 306.231 39.2608V102.64C306.231 109.665 307.576 112.804 314.901 113.851V114.299C307.277 114.747 299.654 115.345 292.031 116.093V91.2793C286.649 103.985 276.186 116.541 260.64 116.541C243.749 116.541 243.301 99.7996 243.301 86.7949V54.0592C243.301 47.0337 241.955 42.5493 234.481 41.503ZM312.935 41.204V40.6061C326.687 35.2249 333.265 23.5656 336.852 9.96304H338.496V28.1994C338.496 34.9259 335.208 42.3999 330.424 47.1832L330.723 47.4821C335.507 42.6988 342.981 39.4103 349.707 39.4103H358.975V41.204H350.156C343.13 41.204 338.496 45.8379 338.496 52.8633V93.9699C338.496 99.3511 335.208 104.433 330.275 106.825L330.424 107.124C332.368 106.227 334.61 105.629 336.703 105.629C339.991 105.629 343.13 106.676 345.821 108.768C347.166 109.964 348.96 110.263 350.006 109.815C355.387 107.273 356.434 96.6605 357.032 90.9803H358.975C358.377 104.284 354.191 116.84 338.347 116.84C323.249 116.84 322.203 104.882 322.203 92.3256V41.204H312.935ZM363.437 104.284C363.437 98.7532 367.772 94.4183 373.303 94.4183C378.833 94.4183 383.168 98.6037 383.168 104.284C383.168 109.815 378.833 114 373.303 114C367.921 114 363.437 109.516 363.437 104.284Z"/>
</mask>
<path d="M49.043 66.6154L45.5015 64.756L45.4929 64.7724L45.4844 64.7888L49.043 66.6154ZM62.0477 54.3581L62.4894 58.3337L67.4071 57.7873L65.8424 53.0932L62.0477 54.3581ZM61.8982 53.9097L65.6929 52.6448L64.6441 49.4982L61.3577 49.9464L61.8982 53.9097ZM46.3524 45.2399L49.5524 42.8399L49.5448 42.8298L49.5371 42.8196L46.3524 45.2399ZM33.4973 38.9618V34.9618H33.4717L33.446 34.9622L33.4973 38.9618ZM33.4973 37.1681V41.1681H33.5127L33.5281 41.168L33.4973 37.1681ZM76.2481 111.758L78.6684 114.942L75.2519 107.884L76.2481 111.758ZM51.1357 100.846L55.1243 100.544L54.2414 88.8893L47.7984 98.6409L51.1357 100.846ZM21.539 91.5782L17.6516 90.6358L17.6472 90.654L17.643 90.6722L21.539 91.5782ZM10.3281 105.928L9.17058 102.099L5.23237 103.29L6.53341 107.193L10.3281 105.928ZM10.4776 106.377L6.68289 107.642L7.894 111.275L11.5765 110.223L10.4776 106.377ZM27.9666 111.608L26.896 115.462L26.9089 115.466L27.9666 111.608ZM51.5842 68.8575H55.5842V57.3495L48.4465 66.3766L51.5842 68.8575ZM21.9875 112.541C17.8263 112.541 14.3874 111.212 12.0337 109.064C9.72129 106.955 8.19953 103.83 8.19953 99.6501H0.199529C0.199529 105.934 2.56421 111.254 6.642 114.974C10.6785 118.657 16.1336 120.541 21.9875 120.541V112.541ZM8.19953 99.6501C8.19953 94.1973 10.0091 91.0633 12.5807 88.8733C15.3966 86.4751 19.4465 84.9305 24.4634 83.505C29.1637 82.1695 35.001 80.8846 39.8649 78.938C44.8727 76.9339 49.7984 73.9034 52.6017 68.4419L45.4844 64.7888C43.9528 67.7728 41.1056 69.8246 36.8925 71.5107C32.5354 73.2544 27.7037 74.2677 22.2769 75.8096C17.1666 77.2616 11.6312 79.1738 7.39363 82.7827C2.91163 86.5998 0.199529 92.0234 0.199529 99.6501H8.19953ZM52.5846 68.4747C55.9042 62.1517 58.17 58.8136 62.4894 58.3337L61.6059 50.3826C52.4723 51.3974 48.46 59.1207 45.5015 64.756L52.5846 68.4747ZM65.8424 53.0932L65.6929 52.6448L58.1034 55.1746L58.2529 55.623L65.8424 53.0932ZM61.3577 49.9464C57.0826 50.5293 53.4115 47.9853 49.5524 42.8399L43.1524 47.6399C47.3652 53.257 53.5597 59.0838 62.4386 57.873L61.3577 49.9464ZM49.5371 42.8196C46.0033 38.1699 40.6772 34.9618 33.4973 34.9618V42.9618C37.9767 42.9618 41.0214 44.836 43.1678 47.6603L49.5371 42.8196ZM33.446 34.9622C29.9896 35.0065 27.0169 35.7989 24.7696 37.6555C22.4847 39.5433 21.522 42.056 21.143 44.343C20.7756 46.5596 20.904 48.8783 21.0605 50.7869C21.2333 52.8951 21.4255 54.4268 21.4255 55.8529H29.4255C29.4255 53.9904 29.1692 51.7852 29.0337 50.1332C28.8819 48.2814 28.8421 46.8165 29.0353 45.6511C29.2168 44.5562 29.5434 44.0887 29.865 43.823C30.2243 43.5261 31.1753 42.9919 33.5486 42.9615L33.446 34.9622ZM21.4255 55.8529C21.4255 56.7153 21.1087 57.2187 20.472 57.6555C19.6913 58.191 18.4088 58.5794 16.9052 58.5794V66.5794C19.587 66.5794 22.5646 65.9215 24.9977 64.2523C27.5748 62.4842 29.4255 59.6243 29.4255 55.8529H21.4255ZM16.9052 58.5794C15.1716 58.5794 13.9867 58.1153 13.3155 57.564C12.7515 57.1007 12.2354 56.3337 12.2354 54.8066H4.23545C4.23545 58.5112 5.6626 61.6306 8.23762 63.7458C10.7055 65.773 13.8555 66.5794 16.9052 66.5794V58.5794ZM12.2354 54.8066C12.2354 51.7841 13.9752 48.4661 17.7209 45.7504C21.4419 43.0527 26.9108 41.1681 33.4973 41.1681V33.1681C25.4349 33.1681 18.2729 35.4689 13.0252 39.2735C7.80222 43.0602 4.23545 48.5614 4.23545 54.8066H12.2354ZM33.5281 41.168C42.7894 41.0967 50.3157 42.9686 55.4344 46.7841C60.3578 50.454 63.5784 56.3115 63.5784 65.569H71.5784C71.5784 54.1985 67.4745 45.7808 60.2154 40.3699C53.1516 35.1046 43.6374 33.09 33.4665 33.1682L33.5281 41.168ZM63.5784 65.569V104.284H71.5784V65.569H63.5784ZM63.5784 104.284C63.5784 107.727 64.7143 111.121 67.2534 113.44C69.8996 115.858 73.5093 116.592 77.2443 115.632L75.2519 107.884C73.7552 108.269 73.03 107.882 72.6493 107.534C72.1615 107.088 71.5784 106.073 71.5784 104.284H63.5784ZM73.8278 108.573C70.6648 110.977 67.6087 111.943 65.0372 111.943V119.943C69.6407 119.943 74.3575 118.219 78.6684 114.942L73.8278 108.573ZM65.0372 111.943C62.4606 111.943 60.2239 111.023 58.5359 109.297C56.8312 107.554 55.4414 104.729 55.1243 100.544L47.1472 101.148C47.5775 106.829 49.5509 111.552 52.8164 114.891C56.0985 118.247 60.4389 119.943 65.0372 119.943V111.943ZM47.7984 98.6409C45.085 102.748 42.5434 106.079 38.86 108.483C35.2452 110.842 30.1486 112.541 21.9875 112.541V120.541C31.3153 120.541 38.0275 118.579 43.2319 115.182C48.3677 111.831 51.6558 107.315 54.4731 103.051L47.7984 98.6409ZM17.643 90.6722C16.2655 96.5953 13.5348 100.78 9.17058 102.099L11.4857 109.757C19.9766 107.19 23.823 99.4163 25.4351 92.4843L17.643 90.6722ZM6.53341 107.193L6.68289 107.642L14.2724 105.112L14.1229 104.663L6.53341 107.193ZM11.5765 110.223C12.3735 109.995 12.8902 109.928 13.3177 109.928V101.928C11.9515 101.928 10.6744 102.16 9.37874 102.531L11.5765 110.223ZM13.3177 109.928C14.7935 109.928 16.3448 110.531 18.674 111.751C20.7616 112.845 23.677 114.568 26.896 115.462L29.0372 107.754C26.875 107.154 25.0071 106.037 22.3861 104.664C20.0067 103.418 16.9241 101.928 13.3177 101.928V109.928ZM26.9089 115.466C30.3977 116.423 34.0301 115.734 37.2423 114.302C40.4831 112.857 43.5989 110.53 46.2973 107.696C51.6519 102.072 55.8831 93.8788 55.8831 85.1507H47.8831C47.8831 91.3704 44.7899 97.6771 40.5032 102.18C38.3809 104.409 36.0968 106.053 33.9844 106.995C31.8434 107.95 30.1694 108.065 29.0243 107.751L26.9089 115.466ZM55.8831 85.1507C55.8831 82.396 55.8066 79.6128 55.7322 76.8946C55.6572 74.1569 55.5842 71.484 55.5842 68.8575H47.5842C47.5842 71.6122 47.6607 74.3954 47.7352 77.1136C47.8102 79.8513 47.8831 82.5242 47.8831 85.1507H55.8831ZM48.4465 66.3766C44.1847 71.7665 38.7831 73.4051 32.6617 75.7549C29.7362 76.8779 26.5001 78.2417 23.7621 80.5156C20.8941 82.8974 18.7466 86.1192 17.6516 90.6358L25.4264 92.5206C26.1252 89.6381 27.3596 87.9271 28.8732 86.67C30.5168 85.3051 32.6619 84.324 35.5287 83.2235C40.9919 81.1263 48.8191 78.8037 54.7218 71.3385L48.4465 66.3766ZM74.5793 7.57139L74.3691 3.57692L73.8113 11.497L74.5793 7.57139ZM99.6917 4.7313H103.692V0.0235634L99.0457 0.783806L99.6917 4.7313ZM99.6917 58.992H95.6917L103.379 60.5418L99.6917 58.992ZM113.892 115.644L112.581 119.423L112.584 119.424L113.892 115.644ZM100.29 102.789L103.774 100.824L101.314 96.4644L97.6045 99.8243L100.29 102.789ZM84.4449 117.139V121.139H85.987L87.13 120.104L84.4449 117.139ZM83.2491 117.139H79.2491V121.139H83.2491V117.139ZM114.49 113.851L113.152 117.62L113.189 117.633L113.225 117.645L114.49 113.851ZM133.773 68.5586L129.788 68.9127L129.793 68.9584L129.798 69.0041L133.773 68.5586ZM143.19 54.6571L144.265 58.5099L147.19 57.6936V54.6571H143.19ZM143.19 54.2086H147.19V49.0856L142.22 50.3281L143.19 54.2086ZM127.943 47.0337L131.383 44.9915L131.366 44.9643L131.35 44.9373L127.943 47.0337ZM106.119 50.7706L102.802 48.5362L102.796 48.544L102.791 48.5518L106.119 50.7706ZM74.7896 11.5659C83.4961 11.1076 92.0183 10.0401 100.338 8.6788L99.0457 0.783806C90.9225 2.11306 82.7031 3.13829 74.3691 3.57692L74.7896 11.5659ZM95.6917 4.7313V58.992H103.692V4.7313H95.6917ZM103.379 60.5418C107.624 50.4423 113.994 42.3639 123.907 42.3639V34.3639C108.708 34.3639 100.429 46.9136 96.0041 57.4421L103.379 60.5418ZM123.907 42.3639C130.114 42.3639 136.796 45.8334 142.05 52.2871C147.266 58.6942 150.849 67.8121 150.849 78.4241H158.849C158.849 66.0165 154.659 55.1043 148.254 47.2362C141.886 39.4147 133.097 34.3639 123.907 34.3639V42.3639ZM150.849 78.4241C150.849 87.7631 148.26 96.7565 143.686 103.3C139.165 109.768 132.823 113.737 124.954 113.737V121.737C135.918 121.737 144.524 116.064 150.243 107.883C155.908 99.7783 158.849 89.1153 158.849 78.4241H150.849ZM124.954 113.737C122.077 113.737 118.792 113.107 115.201 111.864L112.584 119.424C116.765 120.872 120.954 121.737 124.954 121.737V113.737ZM115.203 111.865C109.312 109.821 106.942 106.441 103.774 100.824L96.8057 104.754C100.214 110.797 103.823 116.385 112.581 119.423L115.203 111.865ZM97.6045 99.8243L81.7598 114.174L87.13 120.104L102.975 105.754L97.6045 99.8243ZM84.4449 113.139H83.2491V121.139H84.4449V113.139ZM87.2491 117.139V20.2771H79.2491V117.139H87.2491ZM87.2491 20.2771C87.2491 16.7322 86.7873 13.021 84.9253 9.90865C82.9355 6.58297 79.6938 4.4962 75.3474 3.64582L73.8113 11.497C76.3409 11.9919 77.434 12.9694 78.0601 14.016C78.8139 15.2759 79.2491 17.2448 79.2491 20.2771H87.2491ZM95.8412 78.2747C95.8412 84.3284 96.0125 92.4928 98.1053 99.8479C100.213 107.255 104.492 114.547 113.152 117.62L115.828 110.081C110.587 108.221 107.541 103.779 105.8 97.6585C104.044 91.4858 103.841 84.3286 103.841 78.2747H95.8412ZM113.225 117.645C115.621 118.444 118.041 119.046 120.469 119.046V111.046C119.31 111.046 117.844 110.752 115.755 110.056L113.225 117.645ZM120.469 119.046C125.905 119.046 129.982 116.442 132.762 112.543C135.413 108.826 136.899 103.952 137.736 98.9674C139.418 88.9527 138.731 76.8849 137.748 68.1131L129.798 69.0041C130.758 77.5718 131.341 88.7478 129.847 97.6421C129.096 102.112 127.882 105.609 126.249 107.899C124.746 110.007 122.956 111.046 120.469 111.046V119.046ZM137.757 68.2044C137.323 63.3169 139.772 59.7639 144.265 58.5099L142.115 50.8043C133.753 53.1377 129.027 60.3471 129.788 68.9127L137.757 68.2044ZM147.19 54.6571V54.2086H139.19V54.6571H147.19ZM142.22 50.3281C141.331 50.5502 140.461 50.6571 139.602 50.6571V58.6571C141.135 58.6571 142.657 58.465 144.16 58.0892L142.22 50.3281ZM139.602 50.6571C136.51 50.6571 133.752 48.9821 131.383 44.9915L124.504 49.0758C127.814 54.6519 132.829 58.6571 139.602 58.6571V50.6571ZM131.35 44.9373C128.782 40.7655 124.901 36.6061 119.273 36.6061V44.6061C120.522 44.6061 122.32 45.529 124.536 49.1301L131.35 44.9373ZM119.273 36.6061C113.446 36.6061 107.918 40.9389 102.802 48.5362L109.437 53.005C114.186 45.9535 117.626 44.6061 119.273 44.6061V36.6061ZM102.791 48.5518C96.0954 58.5953 95.8412 67.5983 95.8412 78.2747H103.841C103.841 67.7251 104.185 60.8834 109.447 52.9894L102.791 48.5518ZM196.542 37.766L196.379 33.7693L196.378 33.7694L196.542 37.766ZM170.981 57.3477H166.981V60.6123L170.18 61.2666L170.981 57.3477ZM181.295 70.6513L177.304 70.3852L177.301 70.4349L177.299 70.4847L181.295 70.6513ZM180.996 77.8262L177 77.6597L176.996 77.7429V77.8262H180.996ZM209.397 106.975L205.659 105.551L205.641 105.599L205.623 105.649L209.397 106.975ZM223.149 98.0058L222.534 101.958L227.149 102.676V98.0058H223.149ZM223.149 97.5574H227.149V94.1434L223.778 93.6071L223.149 97.5574ZM212.686 84.8517L208.694 84.5969L208.691 84.6355L208.69 84.6741L212.686 84.8517ZM213.134 77.8262L217.126 78.081L217.134 77.9538V77.8262H213.134ZM196.542 39.5598L196.382 35.563L196.337 35.5648L196.292 35.5676L196.542 39.5598ZM185.78 48.8274L189.357 50.6163L189.368 50.5945L189.379 50.5725L185.78 48.8274ZM170.981 56.8993L171.783 52.9804L166.981 51.9983V56.8993H170.981ZM165.714 77.8262C165.714 59.2843 177.627 42.5468 196.706 41.7626L196.378 33.7694C171.81 34.779 157.714 56.308 157.714 77.8262H165.714ZM196.705 41.7627C206.252 41.373 214.113 45.6792 219.703 52.4868C225.345 59.3585 228.566 68.689 228.566 77.8262H236.566C236.566 66.9334 232.762 55.7853 225.886 47.4102C218.956 38.971 208.805 33.2621 196.379 33.7693L196.705 41.7627ZM228.566 77.8262C228.566 86.5286 225.309 95.5722 219.688 102.395C214.1 109.177 206.348 113.587 197.289 113.587V121.587C209.158 121.587 219.044 115.758 225.863 107.481C232.649 99.2436 236.566 88.4066 236.566 77.8262H228.566ZM197.289 113.587C178.787 113.587 165.714 95.9267 165.714 77.8262H157.714C157.714 98.8891 173.041 121.587 197.289 121.587V113.587ZM170.18 61.2666C174.884 62.2289 177.614 65.7434 177.304 70.3852L185.286 70.9173C185.874 62.1061 180.232 55.1571 171.783 53.4288L170.18 61.2666ZM177.299 70.4847L177 77.6597L184.993 77.9928L185.292 70.8178L177.299 70.4847ZM176.996 77.8262C176.996 83.7866 176.406 93.94 178.288 102.372C179.245 106.655 180.923 110.974 184.008 114.26C187.218 117.679 191.638 119.644 197.289 119.644V111.644C193.673 111.644 191.423 110.47 189.84 108.784C188.132 106.964 186.896 104.211 186.096 100.628C184.466 93.3272 184.996 84.5715 184.996 77.8262H176.996ZM197.289 119.644C201.348 119.644 204.823 118.708 207.627 116.557C210.392 114.437 212.055 111.478 213.171 108.3L205.623 105.649C204.796 108.002 203.843 109.378 202.759 110.209C201.714 111.011 200.107 111.644 197.289 111.644V119.644ZM213.135 108.398C214.13 105.786 215.465 104.04 216.922 103.034C218.304 102.079 220.092 101.578 222.534 101.958L223.764 94.0533C219.48 93.3869 215.588 94.2317 212.374 96.4528C209.233 98.6229 207.056 101.885 205.659 105.551L213.135 108.398ZM227.149 98.0058V97.5574H219.149V98.0058H227.149ZM223.778 93.6071C221.337 93.2188 219.559 92.1554 218.416 90.779C217.279 89.41 216.572 87.4947 216.682 85.0293L208.69 84.6741C208.5 88.9353 209.737 92.8496 212.262 95.8902C214.781 98.9234 218.384 100.85 222.521 101.508L223.778 93.6071ZM216.678 85.1065L217.126 78.081L209.142 77.5714L208.694 84.5969L216.678 85.1065ZM217.134 77.8262C217.134 71.9823 217.687 61.5593 215.749 52.8877C214.768 48.5019 213.06 44.0633 209.93 40.7374C206.651 37.2542 202.131 35.333 196.382 35.563L196.702 43.5566C200.295 43.4128 202.52 44.5373 204.104 46.2204C205.837 48.0608 207.109 50.9093 207.941 54.6327C209.628 62.1796 209.134 71.2635 209.134 77.8262H217.134ZM196.292 35.5676C189.236 36.0086 184.724 41.835 182.18 47.0823L189.379 50.5725C191.618 45.9543 194.281 43.7089 196.792 43.552L196.292 35.5676ZM182.202 47.0386C180.979 49.4847 179.415 51.1754 177.733 52.1418C176.105 53.0774 174.151 53.4648 171.783 52.9804L170.18 60.8181C174.389 61.6791 178.339 61.0201 181.719 59.0782C185.044 57.1671 187.591 54.1493 189.357 50.6163L182.202 47.0386ZM166.981 56.8993V57.3477H174.981V56.8993H166.981ZM234.481 41.503H230.481V44.982L233.927 45.4643L234.481 41.503ZM234.481 41.204L234.196 37.2142L230.481 37.4796V41.204H234.481ZM259.594 39.2608H263.594V34.8878L259.238 35.2767L259.594 39.2608ZM300.551 49.4253L301.789 53.2288L305.619 51.9818L304.346 48.1605L300.551 49.4253ZM300.401 48.9769L304.196 47.712L302.931 43.9173L299.137 45.1822L300.401 48.9769ZM282.912 43.8946L279.712 46.2946L279.727 46.3141L279.742 46.3335L282.912 43.8946ZM281.119 41.503H277.119V42.8363L277.919 43.903L281.119 41.503ZM281.119 41.204L280.834 37.2142L277.119 37.4796V41.204H281.119ZM306.231 39.2608H310.231V34.8878L305.875 35.2767L306.231 39.2608ZM314.901 113.851H318.901V110.381L315.467 109.891L314.901 113.851ZM314.901 114.299L315.136 118.292L318.901 118.071V114.299H314.901ZM292.031 116.093H288.031V120.504L292.421 120.074L292.031 116.093ZM292.031 91.2793H296.031L288.347 89.7193L292.031 91.2793ZM238.481 41.503V41.204H230.481V41.503H238.481ZM234.766 45.1939C243.131 44.5964 251.538 43.996 259.95 43.245L259.238 35.2767C250.909 36.0204 242.573 36.6159 234.196 37.2142L234.766 45.1939ZM255.594 39.2608V91.2793H263.594V39.2608H255.594ZM255.594 91.2793C255.594 95.5942 255.699 101.311 257.637 105.984C258.647 108.421 260.222 110.755 262.675 112.455C265.142 114.165 268.173 115.01 271.702 115.01V107.01C269.476 107.01 268.116 106.492 267.233 105.88C266.337 105.259 265.604 104.313 265.026 102.92C263.788 99.9319 263.594 95.7836 263.594 91.2793H255.594ZM271.702 115.01C275.158 115.01 278.246 113.352 280.713 111.34C283.225 109.292 285.476 106.57 287.346 103.704C290.992 98.1171 293.788 91.0292 293.788 85.7486H285.788C285.788 88.8388 283.877 94.3818 280.646 99.3328C279.078 101.736 277.349 103.761 275.657 105.141C273.92 106.557 272.58 107.01 271.702 107.01V115.01ZM293.788 85.7486V64.0742H285.788V85.7486H293.788ZM293.788 64.0742C293.788 59.1273 296.963 54.8002 301.789 53.2288L299.313 45.6219C291.284 48.2359 285.788 55.5681 285.788 64.0742H293.788ZM304.346 48.1605L304.196 47.712L296.607 50.2418L296.756 50.6902L304.346 48.1605ZM299.137 45.1822C297.728 45.6515 296.361 45.8738 295.02 45.8738V53.8738C297.267 53.8738 299.487 53.4981 301.666 52.7716L299.137 45.1822ZM295.02 45.8738C291.6 45.8738 288.298 44.3355 286.083 41.4558L279.742 46.3335C283.506 51.2266 289.173 53.8738 295.02 53.8738V45.8738ZM286.112 41.4946L284.319 39.103L277.919 43.903L279.712 46.2946L286.112 41.4946ZM285.119 41.503V41.204H277.119V41.503H285.119ZM281.404 45.1939C289.769 44.5964 298.175 43.996 306.587 43.245L305.875 35.2767C297.546 36.0204 289.21 36.6159 280.834 37.2142L281.404 45.1939ZM302.231 39.2608V102.64H310.231V39.2608H302.231ZM302.231 102.64C302.231 106.163 302.506 109.863 304.539 112.777C306.736 115.925 310.265 117.229 314.335 117.81L315.467 109.891C312.212 109.426 311.406 108.637 311.099 108.198C310.629 107.524 310.231 106.142 310.231 102.64H302.231ZM310.901 113.851V114.299H318.901V113.851H310.901ZM314.666 110.306C306.991 110.757 299.315 111.359 291.64 112.112L292.421 120.074C299.993 119.331 307.564 118.737 315.136 118.292L314.666 110.306ZM296.031 116.093V91.2793H288.031V116.093H296.031ZM288.347 89.7193C283.178 101.924 273.734 112.541 260.64 112.541V120.541C278.638 120.541 290.12 106.046 295.714 92.8393L288.347 89.7193ZM260.64 112.541C257.104 112.541 254.78 111.677 253.17 110.496C251.535 109.297 250.291 107.516 249.372 105.115C247.458 100.112 247.301 93.4386 247.301 86.7949H239.301C239.301 93.1559 239.368 101.355 241.9 107.974C243.205 111.384 245.241 114.602 248.44 116.948C251.664 119.312 255.73 120.541 260.64 120.541V112.541ZM247.301 86.7949V54.0592H239.301V86.7949H247.301ZM247.301 54.0592C247.301 50.4779 247.001 46.6278 245.129 43.4898C243.057 40.0161 239.574 38.177 235.036 37.5416L233.927 45.4643C236.862 45.8753 237.789 46.8016 238.259 47.588C238.928 48.7101 239.301 50.6149 239.301 54.0592H247.301ZM312.935 41.204H308.935V45.204H312.935V41.204ZM312.935 40.6061L311.478 36.8811L308.935 37.876V40.6061H312.935ZM336.852 9.96304V5.96304H333.77L332.984 8.94298L336.852 9.96304ZM338.496 9.96304H342.496V5.96304H338.496V9.96304ZM330.424 47.1832L327.596 44.3547L324.768 47.1832L327.596 50.0116L330.424 47.1832ZM330.723 47.4821L327.895 50.3105L330.723 53.139L333.552 50.3105L330.723 47.4821ZM358.975 39.4103H362.975V35.4103H358.975V39.4103ZM358.975 41.204V45.204H362.975V41.204H358.975ZM330.275 106.825L328.53 103.226L324.886 104.992L326.697 108.614L330.275 106.825ZM330.424 107.124L326.847 108.913L328.581 112.38L332.101 110.756L330.424 107.124ZM345.821 108.768L348.478 105.779L348.38 105.691L348.276 105.611L345.821 108.768ZM350.006 109.815L351.582 113.491L351.648 113.463L351.714 113.432L350.006 109.815ZM357.032 90.9803V86.9803H353.431L353.054 90.5616L357.032 90.9803ZM358.975 90.9803L362.971 91.1599L363.159 86.9803H358.975V90.9803ZM322.203 41.204H326.203V37.204H322.203V41.204ZM316.935 41.204V40.6061H308.935V41.204H316.935ZM314.393 44.3311C329.85 38.2828 336.98 25.1634 340.72 10.9831L332.984 8.94298C329.549 21.9677 323.525 32.167 311.478 36.8811L314.393 44.3311ZM336.852 13.963H338.496V5.96304H336.852V13.963ZM334.496 9.96304V28.1994H342.496V9.96304H334.496ZM334.496 28.1994C334.496 33.7919 331.683 40.2682 327.596 44.3547L333.253 50.0116C338.733 44.5315 342.496 36.06 342.496 28.1994H334.496ZM327.596 50.0116L327.895 50.3105L333.552 44.6537L333.253 44.3547L327.596 50.0116ZM333.552 50.3105C337.638 46.224 344.115 43.4103 349.707 43.4103V35.4103C341.847 35.4103 333.375 39.1736 327.895 44.6537L333.552 50.3105ZM349.707 43.4103H358.975V35.4103H349.707V43.4103ZM354.975 39.4103V41.204H362.975V39.4103H354.975ZM358.975 37.204H350.156V45.204H358.975V37.204ZM350.156 37.204C345.745 37.204 341.757 38.6762 338.863 41.5707C335.968 44.4652 334.496 48.4524 334.496 52.8633H342.496C342.496 50.2488 343.341 48.4063 344.52 47.2276C345.699 46.0488 347.541 45.204 350.156 45.204V37.204ZM334.496 52.8633V93.9699H342.496V52.8633H334.496ZM334.496 93.9699C334.496 97.7509 332.145 101.473 328.53 103.226L332.02 110.424C338.27 107.394 342.496 100.951 342.496 93.9699H334.496ZM326.697 108.614L326.847 108.913L334.002 105.335L333.853 105.036L326.697 108.614ZM332.101 110.756C333.647 110.042 335.316 109.629 336.703 109.629V101.629C333.904 101.629 331.088 102.412 328.748 103.492L332.101 110.756ZM336.703 109.629C339.11 109.629 341.383 110.384 343.365 111.926L348.276 105.611C344.877 102.967 340.872 101.629 336.703 101.629V109.629ZM343.163 111.758C344.364 112.825 345.768 113.5 347.147 113.81C348.464 114.107 350.077 114.136 351.582 113.491L348.43 106.138C348.562 106.082 348.67 106.052 348.746 106.036C348.822 106.019 348.876 106.015 348.906 106.013C348.96 106.011 348.957 106.018 348.904 106.006C348.853 105.994 348.782 105.971 348.702 105.931C348.623 105.891 348.547 105.84 348.478 105.779L343.163 111.758ZM351.714 113.432C354.003 112.351 355.602 110.521 356.72 108.656C357.84 106.789 358.612 104.669 359.17 102.632C360.281 98.581 360.717 94.174 361.01 91.3991L353.054 90.5616C352.748 93.4668 352.362 97.2064 351.455 100.517C351.004 102.161 350.469 103.525 349.859 104.541C349.25 105.558 348.7 106.008 348.298 106.198L351.714 113.432ZM357.032 94.9803H358.975V86.9803H357.032V94.9803ZM354.979 90.8007C354.69 97.2222 353.54 102.825 351.018 106.729C348.699 110.32 344.997 112.84 338.347 112.84V120.84C347.542 120.84 353.855 117.082 357.738 111.069C361.42 105.369 362.661 98.0421 362.971 91.1599L354.979 90.8007ZM338.347 112.84C335.094 112.84 332.95 112.197 331.496 111.335C330.072 110.491 329.024 109.268 328.232 107.586C326.521 103.957 326.203 98.7216 326.203 92.3256H318.203C318.203 98.4858 318.408 105.508 320.995 110.997C322.351 113.874 324.396 116.425 327.415 118.216C330.403 119.988 334.051 120.84 338.347 120.84V112.84ZM326.203 92.3256V41.204H318.203V92.3256H326.203ZM322.203 37.204H312.935V45.204H322.203V37.204ZM367.437 104.284C367.437 100.962 369.981 98.4183 373.303 98.4183V90.4183C365.563 90.4183 359.437 96.5441 359.437 104.284H367.437ZM373.303 98.4183C376.664 98.4183 379.168 100.853 379.168 104.284H387.168C387.168 96.3548 381.002 90.4183 373.303 90.4183V98.4183ZM379.168 104.284C379.168 107.526 376.705 110 373.303 110V118C380.962 118 387.168 112.104 387.168 104.284H379.168ZM373.303 110C370.091 110 367.437 107.267 367.437 104.284H359.437C359.437 111.764 365.752 118 373.303 118V110Z" fill="black" mask="url(#path-1-outside-1_72_148)"/>
</svg>
