<svg width="100" height="100" viewBox="0 0 100 100" fill="none" xmlns="http://www.w3.org/2000/svg">
<circle cx="50" cy="50" r="50" fill="black"/>
<path d="M29.7815 42.5574L30.2869 27.7729H68.9541L69.5227 42.5574H69.2068C68.5118 36.9974 66.8059 31.8165 62.5095 29.3524C62.1304 29.1629 61.7513 29.0997 61.3723 29.0997C60.6141 29.0997 59.9191 29.3524 59.3504 29.8579L58.2132 30.932C56.5705 32.4483 54.3591 33.2697 52.1477 33.2697C50.8841 33.2697 49.6205 33.017 48.4832 32.5115L48.42 32.6379C51.6423 34.091 53.8537 37.3133 53.8537 40.8515L53.9168 64.7973C53.9168 69.8518 55.8123 71.1155 60.4877 71.6841V72H38.7533V71.6841C43.4287 71.1155 45.3241 69.8518 45.3241 64.7973V28.5942H40.4592C33.1933 28.5942 30.8556 36.6183 30.0342 42.5574H29.7815Z" fill="white"/>
</svg>
