<svg width="684" height="89" viewBox="0 0 684 89" fill="none" xmlns="http://www.w3.org/2000/svg">
<mask id="path-1-outside-1_72_81" maskUnits="userSpaceOnUse" x="0" y="0" width="684" height="154" fill="black">
<rect fill="white" width="684" height="154"/>
<path d="M4.45305 42.204V41.6061C18.2051 36.2249 24.7821 24.5656 28.3696 10.963H30.0139V29.1994C30.0139 35.9259 26.7253 43.3999 21.942 48.1832L22.241 48.4821C27.0243 43.6988 34.4982 40.4103 41.2247 40.4103H50.4924V42.204H41.6732C34.6477 42.204 30.0139 46.8379 30.0139 53.8633V94.9699C30.0139 100.351 26.7253 105.433 21.7925 107.825L21.942 108.124C23.8852 107.227 26.1274 106.629 28.2201 106.629C31.5086 106.629 34.6477 107.676 37.3383 109.768C38.6836 110.964 40.4773 111.263 41.5237 110.815C46.9049 108.273 47.9513 97.6605 48.5492 91.9803H50.4924C49.8945 105.284 45.7091 117.84 29.8644 117.84C14.7671 117.84 13.7207 105.882 13.7207 93.3256V42.204H4.45305ZM60.0684 20.6791C60.0684 13.9526 58.2746 9.16931 51.2491 7.97348V7.824C59.7694 7.22609 68.2897 6.32921 76.6605 4.83443V61.3373C77.5573 59.5435 78.6037 58.0487 79.65 56.1055C85.6292 46.3894 94.8968 41.1577 105.809 41.1577C122.55 41.1577 123.148 57.8993 123.148 70.9039V100.8C123.148 107.526 124.344 112.459 131.22 114.552V115H98.6338V114.701C105.659 112.758 106.855 107.526 106.855 100.8V71.9502C106.855 65.2237 111.04 59.2446 117.319 57.0024V56.7034C115.375 57.3013 113.432 57.7498 111.638 57.7498C107.005 57.7498 102.52 55.8066 99.5306 52.2191L96.3916 48.4821C95.4947 47.4358 94.4484 46.9873 93.2526 46.9873C88.7682 46.9873 83.088 54.0128 81.4438 56.7034C78.4542 61.4867 76.6605 65.0742 76.6605 69.7081V92.4288C76.6605 99.1553 72.3256 104.985 66.0475 107.078V107.377C67.8412 106.779 69.635 106.48 71.2792 106.48C76.9594 106.48 81.5932 109.768 84.8818 115H51.9965V114.552C59.022 112.608 60.0684 107.676 60.0684 100.8V20.6791ZM152.744 117.541C142.729 117.541 134.956 111.114 134.956 100.65C134.956 74.4914 171.13 84.5064 179.799 67.6154C182.938 61.6362 186.077 56.1055 192.804 55.3581L192.655 54.9097C186.077 55.8066 181.145 51.6212 177.109 46.2399C174.269 42.503 170.083 39.9618 164.254 39.9618C152.594 40.1113 156.182 50.2759 156.182 56.8529C156.182 61.4867 151.847 63.5794 147.662 63.5794C142.878 63.5794 138.992 61.0383 138.992 55.8066C138.992 46.5389 149.605 38.1681 164.254 38.1681C183.686 38.0186 198.335 45.941 198.335 66.569V105.284C198.335 110.516 201.773 114.103 207.004 112.758C203.267 115.598 199.381 116.943 195.794 116.943C188.619 116.943 182.639 111.711 181.892 101.846C176.361 110.217 170.233 117.541 152.744 117.541ZM152.295 92.5782C150.801 99.0058 147.512 104.985 141.084 106.928L141.234 107.377C142.28 107.078 143.177 106.928 144.074 106.928C149.156 106.928 153.342 111.114 158.723 112.608C167.991 115.149 182.639 101.099 182.639 86.1507C182.639 80.7694 182.34 75.2388 182.34 69.8575C172.176 82.7127 155.883 77.7799 152.295 92.5782ZM208.774 42.0545C216.397 41.6061 224.17 41.0082 231.793 40.2608V66.27C237.175 52.6675 247.04 41.1577 263.034 41.1577C279.925 41.1577 280.374 57.8993 280.374 70.9039V100.8C280.374 107.526 281.57 112.459 288.446 114.552V115H255.859V114.701C262.885 112.758 264.081 107.526 264.081 100.8V71.9502C264.081 65.2237 268.416 59.2446 274.694 57.0024L274.544 56.7034C272.75 57.3013 270.807 57.7498 268.864 57.7498C264.38 57.7498 259.895 55.8066 256.756 52.2191L253.617 48.4821C252.72 47.4358 251.674 46.9873 250.478 46.9873C246.143 46.9873 240.463 54.0128 238.669 56.7034C234.633 63.43 233.737 68.2133 233.737 75.8367V100.8C233.737 107.526 234.783 112.758 241.808 114.701V115H209.372V114.552C216.248 112.459 217.294 107.676 217.294 100.8V55.0592C217.294 48.3326 215.799 43.8483 208.774 42.503V42.0545ZM290.075 7.97348V7.824C298.446 7.37556 306.966 6.32921 315.187 4.9839V100.8C315.187 107.526 316.233 112.758 323.259 114.701V115H290.822V114.701C297.848 112.608 298.894 107.676 298.894 100.8V20.6791C298.894 13.9526 297.1 9.16931 290.075 7.97348ZM333.872 94.372L320.718 74.6408L341.645 55.0592C347.923 49.08 338.805 43.5493 332.377 42.503V42.3535H364.515V42.503C358.835 43.8483 353.454 46.2399 345.83 53.8633L333.124 66.1206L358.835 105.284C361.376 109.32 364.216 112.758 368.7 114.552V115H334.47L335.068 113.804C338.057 107.825 344.634 103.64 351.361 103.191L351.211 102.892C344.485 103.191 337.609 100.052 333.872 94.372ZM427.117 42.3535H463.59L461.946 45.3431C458.807 51.3222 452.23 54.9097 445.503 54.6107V55.0592C452.23 55.3581 458.508 59.394 461.198 65.5227L475.548 98.2584L491.841 57.6003C495.578 48.6316 492.888 43.9978 483.769 42.503V42.3535H506.341V42.9514C500.063 45.0441 497.073 50.1264 494.681 55.956L469.569 118.438C465.683 128.154 459.255 144.148 448.792 148.483C446.699 149.38 444.008 149.978 441.318 149.978C434.741 149.978 427.715 146.689 427.715 139.365C427.715 134.731 430.107 131.443 434.89 131.443C438.627 131.443 441.318 133.087 441.318 136.973C441.318 140.112 439.374 142.205 439.374 144.447C439.374 146.988 441.168 147.736 443.261 147.736C456.415 147.736 464.786 126.061 468.074 116.495L439.972 57.0024C437.282 51.3222 433.545 44.8946 427.117 42.8019V42.3535ZM502.236 78.8262C502.236 58.7961 515.241 39.6629 537.064 38.766C559.038 37.8692 573.089 58.7961 573.089 78.8262C573.089 98.1089 558.739 118.587 537.812 118.587C516.436 118.587 502.236 98.4079 502.236 78.8262ZM511.504 58.3477C518.081 59.693 522.266 64.9247 521.818 71.6513L521.519 78.8262C521.519 91.5319 519.276 116.644 537.812 116.644C544.688 116.644 547.976 113.505 549.92 107.975C552.311 101.696 556.945 97.9595 563.672 99.0058V98.5574C557.094 97.511 552.909 92.5782 553.208 85.8517L553.656 78.8262C553.656 66.4195 555.749 39.8124 537.064 40.5598C532.281 40.8587 528.694 44.8946 526.302 49.8274C523.312 55.8066 518.081 59.2446 511.504 57.8993V58.3477ZM575.004 42.503V42.204C583.375 41.6061 591.745 41.0082 600.116 40.2608V92.2793C600.116 101.099 600.714 112.01 612.224 112.01C620.894 112.01 630.311 95.1194 630.311 86.7486V65.0742C630.311 58.3477 634.646 52.518 641.073 50.4253L640.924 49.9769C639.13 50.5748 637.336 50.8738 635.543 50.8738C630.909 50.8738 626.424 48.7811 623.435 44.8946L621.641 42.503V42.204C630.012 41.6061 638.383 41.0082 646.753 40.2608V103.64C646.753 110.665 648.099 113.804 655.423 114.851V115.299C647.8 115.747 640.176 116.345 632.553 117.093V92.2793C627.172 104.985 616.708 117.541 601.163 117.541C584.272 117.541 583.823 100.8 583.823 87.7949V55.0592C583.823 48.0337 582.478 43.5493 575.004 42.503ZM659.437 105.284C659.437 99.7532 663.772 95.4183 669.303 95.4183C674.833 95.4183 679.168 99.6037 679.168 105.284C679.168 110.815 674.833 115 669.303 115C663.921 115 659.437 110.516 659.437 105.284Z"/>
</mask>
<path d="M4.45305 42.204H0.453053V46.204H4.45305V42.204ZM4.45305 41.6061L2.99546 37.8811L0.453053 38.876V41.6061H4.45305ZM28.3696 10.963V6.96304H25.2878L24.5018 9.94298L28.3696 10.963ZM30.0139 10.963H34.0139V6.96304H30.0139V10.963ZM21.942 48.1832L19.1136 45.3547L16.2852 48.1832L19.1136 51.0116L21.942 48.1832ZM22.241 48.4821L19.4125 51.3105L22.241 54.139L25.0694 51.3105L22.241 48.4821ZM50.4924 40.4103H54.4924V36.4103H50.4924V40.4103ZM50.4924 42.204V46.204H54.4924V42.204H50.4924ZM21.7925 107.825L20.0475 104.226L16.404 105.992L18.2148 109.614L21.7925 107.825ZM21.942 108.124L18.3643 109.913L20.0981 113.38L23.6183 111.756L21.942 108.124ZM37.3383 109.768L39.9958 106.779L39.8977 106.691L39.7941 106.611L37.3383 109.768ZM41.5237 110.815L43.0994 114.491L43.1661 114.463L43.2317 114.432L41.5237 110.815ZM48.5492 91.9803V87.9803H44.9481L44.5712 91.5616L48.5492 91.9803ZM50.4924 91.9803L54.4884 92.1599L54.6762 87.9803H50.4924V91.9803ZM13.7207 42.204H17.7207V38.204H13.7207V42.204ZM8.45305 42.204V41.6061H0.453053V42.204H8.45305ZM5.91065 45.3311C21.3675 39.2828 28.4975 26.1634 32.2373 11.9831L24.5018 9.94298C21.0668 22.9677 15.0427 33.167 2.99546 37.8811L5.91065 45.3311ZM28.3696 14.963H30.0139V6.96304H28.3696V14.963ZM26.0139 10.963V29.1994H34.0139V10.963H26.0139ZM26.0139 29.1994C26.0139 34.7919 23.2001 41.2682 19.1136 45.3547L24.7705 51.0116C30.2505 45.5315 34.0139 37.06 34.0139 29.1994H26.0139ZM19.1136 51.0116L19.4125 51.3105L25.0694 45.6537L24.7705 45.3547L19.1136 51.0116ZM25.0694 51.3105C29.1559 47.224 35.6322 44.4103 41.2247 44.4103V36.4103C33.3642 36.4103 24.8926 40.1736 19.4126 45.6537L25.0694 51.3105ZM41.2247 44.4103H50.4924V36.4103H41.2247V44.4103ZM46.4924 40.4103V42.204H54.4924V40.4103H46.4924ZM50.4924 38.204H41.6732V46.204H50.4924V38.204ZM41.6732 38.204C37.2623 38.204 33.275 39.6762 30.3805 42.5707C27.486 45.4652 26.0139 49.4524 26.0139 53.8633H34.0139C34.0139 51.2488 34.8586 49.4063 36.0374 48.2276C37.2162 47.0488 39.0586 46.204 41.6732 46.204V38.204ZM26.0139 53.8633V94.9699H34.0139V53.8633H26.0139ZM26.0139 94.9699C26.0139 98.7509 23.6629 102.473 20.0475 104.226L23.5376 111.424C29.7877 108.394 34.0139 101.951 34.0139 94.9699H26.0139ZM18.2148 109.614L18.3643 109.913L25.5197 106.335L25.3703 106.036L18.2148 109.614ZM23.6183 111.756C25.165 111.042 26.8332 110.629 28.2201 110.629V102.629C25.4216 102.629 22.6055 103.412 20.2658 104.492L23.6183 111.756ZM28.2201 110.629C30.6275 110.629 32.9006 111.384 34.8825 112.926L39.7941 106.611C36.3948 103.967 32.3898 102.629 28.2201 102.629V110.629ZM34.6808 112.758C35.8815 113.825 37.2858 114.5 38.6651 114.81C39.9817 115.107 41.5947 115.136 43.0994 114.491L39.948 107.138C40.0796 107.082 40.188 107.052 40.2636 107.036C40.3397 107.019 40.3939 107.015 40.4233 107.013C40.4779 107.011 40.4749 107.018 40.4212 107.006C40.3706 106.994 40.2994 106.971 40.2193 106.931C40.1406 106.891 40.0644 106.84 39.9958 106.779L34.6808 112.758ZM43.2317 114.432C45.5208 113.351 47.1192 111.521 48.238 109.656C49.3572 107.789 50.1296 105.669 50.6879 103.632C51.7983 99.581 52.2351 95.174 52.5272 92.3991L44.5712 91.5616C44.2653 94.4668 43.88 98.2064 42.9725 101.517C42.5218 103.161 41.9862 104.525 41.3771 105.541C40.7675 106.558 40.2172 107.008 39.8157 107.198L43.2317 114.432ZM48.5492 95.9803H50.4924V87.9803H48.5492V95.9803ZM46.4964 91.8007C46.2078 98.2222 45.0573 103.825 42.5359 107.729C40.2163 111.32 36.5143 113.84 29.8644 113.84V121.84C39.0591 121.84 45.3722 118.082 49.256 112.069C52.9379 106.369 54.1791 99.0421 54.4884 92.1599L46.4964 91.8007ZM29.8644 113.84C26.6117 113.84 24.4673 113.197 23.0131 112.335C21.5897 111.491 20.542 110.268 19.7493 108.586C18.0389 104.957 17.7207 99.7216 17.7207 93.3256H9.72071C9.72071 99.4858 9.92574 106.508 12.5128 111.997C13.8689 114.874 15.9134 117.425 18.9324 119.216C21.9205 120.988 25.5684 121.84 29.8644 121.84V113.84ZM17.7207 93.3256V42.204H9.72071V93.3256H17.7207ZM13.7207 38.204H4.45305V46.204H13.7207V38.204ZM51.2491 7.97348H47.2491V11.3502L50.5779 11.9168L51.2491 7.97348ZM51.2491 7.824L50.9691 3.83381L47.2491 4.09487V7.824H51.2491ZM76.6605 4.83443H80.6605V0.0568676L75.9573 0.896717L76.6605 4.83443ZM76.6605 61.3373H72.6605L80.2382 63.1261L76.6605 61.3373ZM79.65 56.1055L76.2434 54.0091L76.1829 54.1075L76.1281 54.2091L79.65 56.1055ZM131.22 114.552H135.22V111.588L132.385 110.725L131.22 114.552ZM131.22 115V119H135.22V115H131.22ZM98.6338 115H94.6338V119H98.6338V115ZM98.6338 114.701L97.5674 110.846L94.6338 111.657V114.701H98.6338ZM117.319 57.0024L118.664 60.7694L121.319 59.8213V57.0024H117.319ZM117.319 56.7034H121.319V51.2876L116.142 52.8803L117.319 56.7034ZM99.5306 52.2191L102.604 49.6583L102.599 49.6523L102.593 49.6463L99.5306 52.2191ZM96.3916 48.4821L99.4544 45.9093L99.4416 45.8941L99.4286 45.879L96.3916 48.4821ZM81.4438 56.7034L84.8358 58.8234L84.8464 58.8064L84.8569 58.7892L81.4438 56.7034ZM66.0475 107.078L64.7826 103.283L62.0475 104.195V107.078H66.0475ZM66.0475 107.377H62.0475V112.926L67.3124 111.171L66.0475 107.377ZM84.8818 115V119H92.1206L88.2683 112.871L84.8818 115ZM51.9965 115H47.9965V119H51.9965V115ZM51.9965 114.552L50.9302 110.696L47.9965 111.508V114.552H51.9965ZM64.0684 20.6791C64.0684 17.0794 63.6128 13.308 61.7129 10.1771C59.6711 6.81245 56.3422 4.78286 51.9203 4.03019L50.5779 11.9168C53.1815 12.3599 54.2623 13.3199 54.8737 14.3274C55.627 15.5688 56.0684 17.5524 56.0684 20.6791H64.0684ZM55.2491 7.97348V7.824H47.2491V7.97348H55.2491ZM51.5291 11.8142C60.1372 11.2101 68.808 10.2999 77.3636 8.77214L75.9573 0.896717C67.7713 2.35849 59.4016 3.24206 50.9691 3.83381L51.5291 11.8142ZM72.6605 4.83443V61.3373H80.6605V4.83443H72.6605ZM80.2382 63.1261C80.6115 62.3794 81.0269 61.6726 81.5292 60.8354C82.0162 60.0237 82.5948 59.0738 83.1719 58.0019L76.1281 54.2091C75.6589 55.0805 75.1912 55.8496 74.6692 56.7195C74.1625 57.5639 73.6062 58.5014 73.0827 59.5484L80.2382 63.1261ZM83.0567 58.2019C88.3343 49.6258 96.3357 45.1577 105.809 45.1577V37.1577C93.458 37.1577 82.924 43.1531 76.2434 54.0091L83.0567 58.2019ZM105.809 45.1577C109.299 45.1577 111.604 46.0175 113.211 47.1991C114.846 48.4013 116.096 50.1876 117.025 52.594C118.956 57.5983 119.148 64.281 119.148 70.9039H127.148C127.148 64.5221 127.042 56.3318 124.488 49.7141C123.175 46.3095 121.137 43.0976 117.951 40.7544C114.737 38.3905 110.689 37.1577 105.809 37.1577V45.1577ZM119.148 70.9039V100.8H127.148V70.9039H119.148ZM119.148 100.8C119.148 104.274 119.43 107.981 121.022 111.191C122.742 114.659 125.73 117.062 130.055 118.378L132.385 110.725C129.835 109.949 128.786 108.839 128.189 107.636C127.464 106.175 127.148 104.052 127.148 100.8H119.148ZM127.22 114.552V115H135.22V114.552H127.22ZM131.22 111H98.6338V119H131.22V111ZM102.634 115V114.701H94.6338V115H102.634ZM99.7001 118.556C104.18 117.317 107.228 114.845 108.968 111.31C110.573 108.049 110.855 104.273 110.855 100.8H102.855C102.855 104.053 102.539 106.256 101.79 107.778C101.175 109.027 100.113 110.142 97.5674 110.846L99.7001 118.556ZM110.855 100.8V71.9502H102.855V100.8H110.855ZM110.855 71.9502C110.855 66.8935 113.997 62.4361 118.664 60.7694L115.973 53.2354C108.084 56.0531 102.855 63.5539 102.855 71.9502H110.855ZM121.319 57.0024V56.7034H113.319V57.0024H121.319ZM116.142 52.8803C114.318 53.4417 112.829 53.7498 111.638 53.7498V61.7498C114.035 61.7498 116.433 61.161 118.495 60.5265L116.142 52.8803ZM111.638 53.7498C108.103 53.7498 104.778 52.268 102.604 49.6583L96.4578 54.7798C100.262 59.3452 105.906 61.7498 111.638 61.7498V53.7498ZM102.593 49.6463L99.4544 45.9093L93.3288 51.0549L96.4678 54.7918L102.593 49.6463ZM99.4286 45.879C97.7856 43.9621 95.637 42.9873 93.2526 42.9873V50.9873C93.3005 50.9873 93.3154 50.9917 93.3056 50.9897C93.2943 50.9873 93.2731 50.9812 93.2497 50.9704C93.2266 50.9596 93.2205 50.9531 93.2331 50.9629C93.2469 50.9737 93.2889 51.0087 93.3546 51.0853L99.4286 45.879ZM93.2526 42.9873C91.1321 42.9873 89.2163 43.7967 87.7158 44.6811C86.1739 45.5899 84.7452 46.7713 83.5171 47.9469C81.0789 50.281 79.031 52.9807 78.0306 54.6176L84.8569 58.7892C85.5008 57.7355 87.1152 55.5772 89.0491 53.7259C90.0072 52.8088 90.9421 52.0657 91.7779 51.5731C92.6549 51.0562 93.1308 50.9873 93.2526 50.9873V42.9873ZM78.0518 54.5834C75.0022 59.4628 72.6605 63.8741 72.6605 69.7081H80.6605C80.6605 66.2743 81.9062 63.5107 84.8358 58.8234L78.0518 54.5834ZM72.6605 69.7081V92.4288H80.6605V69.7081H72.6605ZM72.6605 92.4288C72.6605 97.3942 69.4649 101.722 64.7826 103.283L67.3124 110.872C75.1862 108.248 80.6605 100.916 80.6605 92.4288H72.6605ZM62.0475 107.078V107.377H70.0475V107.078H62.0475ZM67.3124 111.171C68.7388 110.696 70.1056 110.48 71.2792 110.48V102.48C69.1643 102.48 66.9437 102.862 64.7826 103.582L67.3124 111.171ZM71.2792 110.48C75.1856 110.48 78.6982 112.679 81.4952 117.129L88.2683 112.871C84.4883 106.858 78.7332 102.48 71.2792 102.48V110.48ZM84.8818 111H51.9965V119H84.8818V111ZM55.9965 115V114.552H47.9965V115H55.9965ZM53.0629 118.407C57.4867 117.183 60.5373 114.813 62.2618 111.28C63.8353 108.055 64.0684 104.291 64.0684 100.8H56.0684C56.0684 104.184 55.7782 106.324 55.0722 107.771C54.5172 108.908 53.5318 109.977 50.9302 110.696L53.0629 118.407ZM64.0684 100.8V20.6791H56.0684V100.8H64.0684ZM179.799 67.6154L176.258 65.756L176.249 65.7724L176.241 65.7888L179.799 67.6154ZM192.804 55.3581L193.246 59.3337L198.163 58.7873L196.599 54.0932L192.804 55.3581ZM192.654 54.9097L196.449 53.6448L195.4 50.4982L192.114 50.9464L192.654 54.9097ZM177.109 46.2399L180.309 43.8399L180.301 43.8298L180.293 43.8196L177.109 46.2399ZM164.254 39.9618V35.9618H164.228L164.202 35.9622L164.254 39.9618ZM164.254 38.1681V42.1681H164.269L164.284 42.168L164.254 38.1681ZM207.004 112.758L209.425 115.942L206.008 108.884L207.004 112.758ZM181.892 101.846L185.881 101.544L184.998 89.8893L178.555 99.6409L181.892 101.846ZM152.295 92.5782L148.408 91.6358L148.404 91.654L148.399 91.6722L152.295 92.5782ZM141.084 106.928L139.927 103.099L135.989 104.29L137.29 108.193L141.084 106.928ZM141.234 107.377L137.439 108.642L138.65 112.275L142.333 111.223L141.234 107.377ZM158.723 112.608L157.652 116.462L157.665 116.466L158.723 112.608ZM182.34 69.8575H186.34V58.3495L179.203 67.3766L182.34 69.8575ZM152.744 113.541C148.583 113.541 145.144 112.212 142.79 110.064C140.478 107.955 138.956 104.83 138.956 100.65H130.956C130.956 106.934 133.321 112.254 137.398 115.974C141.435 119.657 146.89 121.541 152.744 121.541V113.541ZM138.956 100.65C138.956 95.1973 140.765 92.0633 143.337 89.8733C146.153 87.4751 150.203 85.9305 155.22 84.505C159.92 83.1695 165.757 81.8846 170.621 79.938C175.629 77.9339 180.555 74.9034 183.358 69.4419L176.241 65.7888C174.709 68.7728 171.862 70.8246 167.649 72.5107C163.292 74.2544 158.46 75.2677 153.033 76.8096C147.923 78.2616 142.388 80.1738 138.15 83.7827C133.668 87.5998 130.956 93.0234 130.956 100.65H138.956ZM183.341 69.4747C186.66 63.1517 188.926 59.8136 193.246 59.3337L192.362 51.3826C183.229 52.3974 179.216 60.1207 176.258 65.756L183.341 69.4747ZM196.599 54.0932L196.449 53.6448L188.86 56.1746L189.009 56.623L196.599 54.0932ZM192.114 50.9464C187.839 51.5293 184.168 48.9853 180.309 43.8399L173.909 48.6399C178.122 54.257 184.316 60.0838 193.195 58.873L192.114 50.9464ZM180.293 43.8196C176.76 39.1699 171.434 35.9618 164.254 35.9618V43.9618C168.733 43.9618 171.778 45.836 173.924 48.6603L180.293 43.8196ZM164.202 35.9622C160.746 36.0065 157.773 36.7989 155.526 38.6555C153.241 40.5433 152.278 43.056 151.899 45.343C151.532 47.5596 151.66 49.8783 151.817 51.7869C151.99 53.8951 152.182 55.4268 152.182 56.8529H160.182C160.182 54.9904 159.925 52.7852 159.79 51.1332C159.638 49.2814 159.598 47.8165 159.792 46.6511C159.973 45.5562 160.3 45.0887 160.621 44.823C160.981 44.5261 161.932 43.9919 164.305 43.9615L164.202 35.9622ZM152.182 56.8529C152.182 57.7153 151.865 58.2187 151.228 58.6555C150.448 59.191 149.165 59.5794 147.662 59.5794V67.5794C150.343 67.5794 153.321 66.9215 155.754 65.2523C158.331 63.4842 160.182 60.6243 160.182 56.8529H152.182ZM147.662 59.5794C145.928 59.5794 144.743 59.1153 144.072 58.564C143.508 58.1007 142.992 57.3337 142.992 55.8066H134.992C134.992 59.5112 136.419 62.6306 138.994 64.7458C141.462 66.773 144.612 67.5794 147.662 67.5794V59.5794ZM142.992 55.8066C142.992 52.7841 144.731 49.4661 148.477 46.7504C152.198 44.0527 157.667 42.1681 164.254 42.1681V34.1681C156.191 34.1681 149.029 36.4689 143.781 40.2735C138.559 44.0602 134.992 49.5614 134.992 55.8066H142.992ZM164.284 42.168C173.546 42.0967 181.072 43.9686 186.191 47.7841C191.114 51.454 194.335 57.3115 194.335 66.569H202.335C202.335 55.1985 198.231 46.7808 190.972 41.3699C183.908 36.1046 174.394 34.09 164.223 34.1682L164.284 42.168ZM194.335 66.569V105.284H202.335V66.569H194.335ZM194.335 105.284C194.335 108.727 195.471 112.121 198.01 114.44C200.656 116.858 204.266 117.592 208.001 116.632L206.008 108.884C204.512 109.269 203.786 108.882 203.406 108.534C202.918 108.088 202.335 107.073 202.335 105.284H194.335ZM204.584 109.573C201.421 111.977 198.365 112.943 195.794 112.943V120.943C200.397 120.943 205.114 119.219 209.425 115.942L204.584 109.573ZM195.794 112.943C193.217 112.943 190.98 112.023 189.292 110.297C187.588 108.554 186.198 105.729 185.881 101.544L177.903 102.148C178.334 107.829 180.307 112.552 183.573 115.891C186.855 119.247 191.195 120.943 195.794 120.943V112.943ZM178.555 99.6409C175.841 103.748 173.3 107.079 169.616 109.483C166.001 111.842 160.905 113.541 152.744 113.541V121.541C162.072 121.541 168.784 119.579 173.988 116.182C179.124 112.831 182.412 108.315 185.229 104.051L178.555 99.6409ZM148.399 91.6722C147.022 97.5953 144.291 101.78 139.927 103.099L142.242 110.757C150.733 108.19 154.579 100.416 156.191 93.4843L148.399 91.6722ZM137.29 108.193L137.439 108.642L145.029 106.112L144.879 105.663L137.29 108.193ZM142.333 111.223C143.13 110.995 143.647 110.928 144.074 110.928V102.928C142.708 102.928 141.431 103.16 140.135 103.531L142.333 111.223ZM144.074 110.928C145.55 110.928 147.101 111.531 149.43 112.751C151.518 113.845 154.433 115.568 157.652 116.462L159.793 108.754C157.631 108.154 155.763 107.037 153.142 105.664C150.763 104.418 147.68 102.928 144.074 102.928V110.928ZM157.665 116.466C161.154 117.423 164.786 116.734 167.999 115.302C171.239 113.857 174.355 111.53 177.054 108.696C182.408 103.072 186.639 94.8788 186.639 86.1507H178.639C178.639 92.3704 175.546 98.6771 171.259 103.18C169.137 105.409 166.853 107.053 164.741 107.995C162.6 108.95 160.926 109.065 159.781 108.751L157.665 116.466ZM186.639 86.1507C186.639 83.396 186.563 80.6128 186.488 77.8946C186.413 75.1569 186.34 72.484 186.34 69.8575H178.34C178.34 72.6122 178.417 75.3954 178.491 78.1136C178.566 80.8513 178.639 83.5242 178.639 86.1507H186.639ZM179.203 67.3766C174.941 72.7665 169.539 74.4051 163.418 76.7549C160.493 77.8779 157.256 79.2417 154.518 81.5156C151.65 83.8974 149.503 87.1192 148.408 91.6358L156.183 93.5206C156.882 90.6381 158.116 88.9271 159.63 87.67C161.273 86.3051 163.418 85.324 166.285 84.2235C171.748 82.1263 179.575 79.8037 185.478 72.3385L179.203 67.3766ZM208.774 42.0545L208.539 38.0614L204.774 38.2829V42.0545H208.774ZM231.793 40.2608H235.793V35.8495L231.403 36.2799L231.793 40.2608ZM231.793 66.2701H227.793L235.513 67.7415L231.793 66.2701ZM288.446 114.552H292.446V111.588L289.61 110.725L288.446 114.552ZM288.446 115V119H292.446V115H288.446ZM255.859 115H251.859V119H255.859V115ZM255.859 114.701L254.793 110.846L251.859 111.657V114.701H255.859ZM274.694 57.0024L276.039 60.7694L280.29 59.2511L278.271 55.2136L274.694 57.0024ZM274.544 56.7034L278.122 54.9146L276.57 51.8116L273.279 52.9087L274.544 56.7034ZM256.756 52.2191L253.693 54.7918L253.719 54.8227L253.746 54.8531L256.756 52.2191ZM253.617 48.4821L256.68 45.9093L256.667 45.8941L256.654 45.879L253.617 48.4821ZM238.669 56.7034L235.341 54.4846L235.288 54.5638L235.239 54.6454L238.669 56.7034ZM241.808 114.701H245.808V111.657L242.875 110.846L241.808 114.701ZM241.808 115V119H245.808V115H241.808ZM209.372 115H205.372V119H209.372V115ZM209.372 114.552L208.207 110.725L205.372 111.588V114.552H209.372ZM208.774 42.503H204.774V45.8097L208.021 46.4316L208.774 42.503ZM209.009 46.0476C216.68 45.5964 224.505 44.9946 232.184 44.2417L231.403 36.2799C223.835 37.0218 216.114 37.6158 208.539 38.0614L209.009 46.0476ZM227.793 40.2608V66.2701H235.793V40.2608H227.793ZM235.513 67.7415C240.629 54.8081 249.441 45.1577 263.034 45.1577V37.1577C244.639 37.1577 233.72 50.527 228.074 64.7986L235.513 67.7415ZM263.034 45.1577C266.57 45.1577 268.894 46.0217 270.504 47.2024C272.14 48.4019 273.384 50.1824 274.302 52.5835C276.217 57.5863 276.374 64.2602 276.374 70.9039H284.374C284.374 64.5429 284.307 56.3437 281.774 49.7246C280.469 46.3147 278.434 43.097 275.235 40.7511C272.01 38.3864 267.944 37.1577 263.034 37.1577V45.1577ZM276.374 70.9039V100.8H284.374V70.9039H276.374ZM276.374 100.8C276.374 104.274 276.656 107.981 278.248 111.191C279.968 114.659 282.955 117.062 287.281 118.378L289.61 110.725C287.06 109.949 286.011 108.839 285.415 107.636C284.69 106.175 284.374 104.052 284.374 100.8H276.374ZM284.446 114.552V115H292.446V114.552H284.446ZM288.446 111H255.859V119H288.446V111ZM259.859 115V114.701H251.859V115H259.859ZM256.926 118.556C261.405 117.317 264.454 114.845 266.193 111.31C267.799 108.049 268.081 104.273 268.081 100.8H260.081C260.081 104.053 259.765 106.256 259.016 107.778C258.401 109.027 257.339 110.142 254.793 110.846L256.926 118.556ZM268.081 100.8V71.9502H260.081V100.8H268.081ZM268.081 71.9502C268.081 66.9555 271.314 62.457 276.039 60.7694L273.348 53.2354C265.517 56.0321 260.081 63.4919 260.081 71.9502H268.081ZM278.271 55.2136L278.122 54.9146L270.966 58.4923L271.116 58.7912L278.271 55.2136ZM273.279 52.9087C271.709 53.4322 270.218 53.7498 268.864 53.7498V61.7498C271.396 61.7498 273.792 61.1704 275.809 60.4982L273.279 52.9087ZM268.864 53.7498C265.517 53.7498 262.135 52.2924 259.767 49.5851L253.746 54.8531C257.655 59.3207 263.242 61.7498 268.864 61.7498V53.7498ZM259.819 49.6463L256.68 45.9093L250.554 51.0549L253.693 54.7918L259.819 49.6463ZM256.654 45.879C255.011 43.9621 252.863 42.9873 250.478 42.9873V50.9873C250.526 50.9873 250.541 50.9917 250.531 50.9897C250.52 50.9873 250.499 50.9812 250.475 50.9704C250.452 50.9596 250.446 50.9531 250.459 50.9629C250.472 50.9737 250.514 51.0087 250.58 51.0853L256.654 45.879ZM250.478 42.9873C248.368 42.9873 246.468 43.8172 245.001 44.6953C243.486 45.6026 242.074 46.7799 240.855 47.9469C238.422 50.2759 236.371 52.9404 235.341 54.4846L241.998 58.9222C242.762 57.7758 244.447 55.5823 246.387 53.7259C247.354 52.8002 248.286 52.053 249.111 51.5589C249.985 51.0357 250.421 50.9873 250.478 50.9873V42.9873ZM235.239 54.6454C233.064 58.2718 231.648 61.5226 230.803 64.9865C229.966 68.4202 229.737 71.8822 229.737 75.8367H237.737C237.737 72.1677 237.955 69.4263 238.576 66.881C239.189 64.3657 240.239 61.8616 242.099 58.7614L235.239 54.6454ZM229.737 75.8367V100.8H237.737V75.8367H229.737ZM229.737 100.8C229.737 104.232 229.974 108.006 231.527 111.265C233.223 114.823 236.246 117.313 240.742 118.556L242.875 110.846C240.345 110.146 239.333 109.048 238.749 107.823C238.022 106.299 237.737 104.093 237.737 100.8H229.737ZM237.808 114.701V115H245.808V114.701H237.808ZM241.808 111H209.372V119H241.808V111ZM213.372 115V114.552H205.372V115H213.372ZM210.536 118.378C214.844 117.067 217.822 114.704 219.512 111.212C221.06 108.013 221.294 104.295 221.294 100.8H213.294C213.294 104.18 213.005 106.292 212.311 107.727C211.758 108.868 210.775 109.943 208.207 110.725L210.536 118.378ZM221.294 100.8V55.0592H213.294V100.8H221.294ZM221.294 55.0592C221.294 51.5436 220.935 47.8301 219.117 44.7364C217.143 41.3773 213.868 39.4059 209.526 38.5744L208.021 46.4316C210.704 46.9454 211.69 47.8888 212.22 48.7899C212.905 49.9563 213.294 51.8482 213.294 55.0592H221.294ZM212.774 42.503V42.0545H204.774V42.503H212.774ZM290.075 7.97348H286.075V11.3502L289.404 11.9168L290.075 7.97348ZM290.075 7.824L289.861 3.82973L286.075 4.03255V7.824H290.075ZM315.187 4.98391H319.187V0.276159L314.541 1.03641L315.187 4.98391ZM323.259 114.701H327.259V111.657L324.325 110.846L323.259 114.701ZM323.259 115V119H327.259V115H323.259ZM290.822 115H286.822V119H290.822V115ZM290.822 114.701L289.68 110.868L286.822 111.719V114.701H290.822ZM333.872 94.372L337.214 92.1735L337.207 92.1633L337.2 92.1532L333.872 94.372ZM320.718 74.6408L317.985 71.7201L315.508 74.0375L317.39 76.8596L320.718 74.6408ZM341.645 55.0592L344.378 57.9799L344.391 57.9679L344.403 57.9557L341.645 55.0592ZM332.377 42.503H328.377V45.9045L331.734 46.451L332.377 42.503ZM332.377 42.3535V38.3535H328.377V42.3535H332.377ZM364.515 42.3535H368.515V38.3535H364.515V42.3535ZM364.515 42.503L365.437 46.3953L368.515 45.6663V42.503H364.515ZM345.83 53.8633L348.607 56.7421L348.633 56.7172L348.659 56.6918L345.83 53.8633ZM333.125 66.1206L330.347 63.2418L327.961 65.5439L329.781 68.3158L333.125 66.1206ZM358.835 105.284L362.22 103.153L362.199 103.12L362.179 103.089L358.835 105.284ZM368.7 114.552H372.7V111.843L370.186 110.838L368.7 114.552ZM368.7 115V119H372.7V115H368.7ZM334.47 115L330.892 113.211L327.998 119H334.47V115ZM335.068 113.804L338.645 115.593L335.068 113.804ZM351.361 103.191L351.627 107.182L357.628 106.782L354.939 101.402L351.361 103.191ZM351.211 102.892L354.789 101.103L353.628 98.7809L351.034 98.8962L351.211 102.892ZM294.075 7.97348V7.824H286.075V7.97348H294.075ZM290.289 11.8183C298.84 11.3602 307.509 10.2935 315.833 8.9314L314.541 1.03641C306.422 2.36491 298.051 3.39096 289.861 3.82973L290.289 11.8183ZM311.187 4.98391V100.8H319.187V4.98391H311.187ZM311.187 100.8C311.187 104.232 311.425 108.006 312.978 111.265C314.673 114.823 317.697 117.313 322.193 118.556L324.325 110.846C321.795 110.146 320.783 109.048 320.199 107.823C319.473 106.299 319.187 104.093 319.187 100.8H311.187ZM319.259 114.701V115H327.259V114.701H319.259ZM323.259 111H290.822V119H323.259V111ZM294.822 115V114.701H286.822V115H294.822ZM291.964 118.535C296.365 117.224 299.384 114.817 301.093 111.287C302.659 108.051 302.894 104.297 302.894 100.8H294.894C294.894 104.179 294.605 106.328 293.892 107.801C293.322 108.979 292.305 110.086 289.68 110.868L291.964 118.535ZM302.894 100.8V20.6791H294.894V100.8H302.894ZM302.894 20.6791C302.894 17.0794 302.438 13.308 300.539 10.1771C298.497 6.81245 295.168 4.78286 290.746 4.03019L289.404 11.9168C292.007 12.3599 293.088 13.3199 293.699 14.3274C294.453 15.5688 294.894 17.5524 294.894 20.6791H302.894ZM337.2 92.1532L324.046 72.422L317.39 76.8596L330.544 96.5908L337.2 92.1532ZM323.451 77.5616L344.378 57.9799L338.912 52.1384L317.985 71.7201L323.451 77.5616ZM344.403 57.9557C346.554 55.9071 347.894 53.3745 347.744 50.5117C347.6 47.7755 346.133 45.6063 344.581 44.0798C341.541 41.0895 336.812 39.1723 333.02 38.555L331.734 46.451C334.369 46.88 337.414 48.2513 338.97 49.7828C339.717 50.5171 339.754 50.9171 339.755 50.9322C339.755 50.9422 339.755 50.9561 339.75 50.981C339.745 51.0067 339.731 51.063 339.689 51.1528C339.603 51.3363 339.39 51.6826 338.886 52.1626L344.403 57.9557ZM336.377 42.503V42.3535H328.377V42.503H336.377ZM332.377 46.3535H364.515V38.3535H332.377V46.3535ZM360.515 42.3535V42.503H368.515V42.3535H360.515ZM363.593 38.6107C357.137 40.1397 351.109 42.9275 343.002 51.0349L348.659 56.6918C355.798 49.5524 360.532 47.5569 365.437 46.3953L363.593 38.6107ZM343.053 50.9846L330.347 63.2418L335.902 68.9993L348.607 56.7421L343.053 50.9846ZM329.781 68.3158L355.491 107.479L362.179 103.089L336.468 63.9254L329.781 68.3158ZM355.45 107.415C358.133 111.676 361.54 115.996 367.215 118.265L370.186 110.838C366.892 109.52 364.619 106.964 362.22 103.153L355.45 107.415ZM364.7 114.552V115H372.7V114.552H364.7ZM368.7 111H334.47V119H368.7V111ZM338.048 116.789L338.645 115.593L331.49 112.015L330.892 113.211L338.048 116.789ZM338.645 115.593C340.966 110.952 346.239 107.542 351.627 107.182L351.095 99.2001C343.03 99.7377 335.149 104.698 331.49 112.015L338.645 115.593ZM354.939 101.402L354.789 101.103L347.634 104.681L347.783 104.98L354.939 101.402ZM351.034 98.8962C345.568 99.1391 340.098 96.5584 337.214 92.1735L330.53 96.5704C335.119 103.546 343.402 107.243 351.389 106.888L351.034 98.8962ZM427.117 42.3535V38.3535H423.117V42.3535H427.117ZM463.59 42.3535L467.095 44.2812L470.355 38.3535H463.59V42.3535ZM461.946 45.3431L458.441 43.4154L458.422 43.4494L458.404 43.4837L461.946 45.3431ZM445.503 54.6107L445.681 50.6147L441.503 50.429V54.6107H445.503ZM445.503 55.0592H441.503V58.8853L445.325 59.0552L445.503 55.0592ZM461.198 65.5227L464.862 63.9167L464.861 63.9147L461.198 65.5227ZM475.548 98.2584L471.885 99.8643L475.714 108.599L479.261 99.7463L475.548 98.2584ZM491.841 57.6003L488.149 56.0618L488.139 56.087L488.128 56.1124L491.841 57.6003ZM483.77 42.503H479.77V45.9006L483.122 46.4503L483.77 42.503ZM483.77 42.3535V38.3535H479.77V42.3535H483.77ZM506.341 42.3535H510.341V38.3535H506.341V42.3535ZM506.341 42.9514L507.606 46.7462L510.341 45.8345V42.9514H506.341ZM494.681 55.956L490.981 54.4378L490.975 54.4511L490.97 54.4644L494.681 55.956ZM469.569 118.438L465.858 116.946L465.855 116.952L469.569 118.438ZM448.792 148.483L447.261 144.788L447.238 144.797L447.216 144.807L448.792 148.483ZM468.074 116.495L471.857 117.795L472.386 116.257L471.691 114.786L468.074 116.495ZM439.972 57.0024L443.589 55.2939L443.587 55.29L439.972 57.0024ZM427.117 42.8019H423.117V45.7063L425.879 46.6054L427.117 42.8019ZM427.117 46.3535H463.59V38.3535H427.117V46.3535ZM460.085 40.4258L458.441 43.4154L465.451 47.2707L467.095 44.2812L460.085 40.4258ZM458.404 43.4837C456.021 48.0226 450.936 50.8482 445.681 50.6147L445.325 58.6068C453.523 58.9711 461.592 54.6219 465.487 47.2024L458.404 43.4837ZM441.503 54.6107V55.0592H449.503V54.6107H441.503ZM445.325 59.0552C450.642 59.2915 455.501 62.4957 457.536 67.1306L464.861 63.9147C461.514 56.2924 453.818 51.4248 445.681 51.0631L445.325 59.0552ZM457.535 67.1286L471.885 99.8643L479.212 96.6525L464.862 63.9167L457.535 67.1286ZM479.261 99.7463L495.554 59.0882L488.128 56.1124L471.835 96.7705L479.261 99.7463ZM495.534 59.1388C497.539 54.3268 498.377 49.4393 496.138 45.3335C493.886 41.2053 489.344 39.3635 484.417 38.5557L483.122 46.4503C487.313 47.1372 488.676 48.3598 489.115 49.1643C489.566 49.9913 489.881 51.9051 488.149 56.0618L495.534 59.1388ZM487.77 42.503V42.3535H479.77V42.503H487.77ZM483.77 46.3535H506.341V38.3535H483.77V46.3535ZM502.341 42.3535V42.9514H510.341V42.3535H502.341ZM505.076 39.1567C497.041 41.8349 493.461 48.3932 490.981 54.4378L498.382 57.4743C500.686 51.8596 503.084 48.2534 507.606 46.7462L505.076 39.1567ZM490.97 54.4644L465.858 116.946L473.28 119.93L498.393 57.4477L490.97 54.4644ZM465.855 116.952C463.898 121.844 461.424 127.992 458.203 133.444C454.918 139.003 451.254 143.133 447.261 144.788L450.323 152.179C456.793 149.498 461.574 143.464 465.09 137.513C468.671 131.455 471.353 124.748 473.283 119.924L465.855 116.952ZM447.216 144.807C445.618 145.491 443.463 145.978 441.318 145.978V153.978C444.553 153.978 447.78 153.269 450.367 152.16L447.216 144.807ZM441.318 145.978C438.615 145.978 436.048 145.289 434.285 144.101C432.664 143.009 431.715 141.53 431.715 139.365H423.715C423.715 144.524 426.279 148.352 429.815 150.735C433.209 153.023 437.443 153.978 441.318 153.978V145.978ZM431.715 139.365C431.715 137.688 432.15 136.734 432.552 136.263C432.874 135.885 433.483 135.443 434.89 135.443V127.443C431.514 127.443 428.535 128.645 426.466 131.07C424.476 133.401 423.715 136.408 423.715 139.365H431.715ZM434.89 135.443C436.254 135.443 436.854 135.754 437.032 135.894C437.098 135.946 437.14 135.997 437.182 136.091C437.23 136.199 437.318 136.463 437.318 136.973H445.318C445.318 134.017 444.238 131.385 441.979 129.607C439.877 127.953 437.263 127.443 434.89 127.443V135.443ZM437.318 136.973C437.318 137.709 437.105 138.398 436.64 139.541C436.284 140.417 435.374 142.357 435.374 144.447H443.374C443.374 144.461 443.371 144.352 443.482 144.011C443.607 143.627 443.769 143.248 444.052 142.552C444.559 141.304 445.318 139.376 445.318 136.973H437.318ZM435.374 144.447C435.374 146.782 436.275 148.926 438.216 150.305C439.907 151.507 441.859 151.736 443.261 151.736V143.736C442.963 143.736 442.781 143.708 442.695 143.687C442.61 143.667 442.693 143.672 442.85 143.784C442.931 143.841 443.021 143.92 443.107 144.022C443.194 144.125 443.261 144.232 443.308 144.332C443.403 144.535 443.374 144.613 443.374 144.447H435.374ZM443.261 151.736C452.115 151.736 458.537 144.555 462.756 137.828C467.159 130.806 470.194 122.633 471.857 117.795L464.292 115.194C462.666 119.923 459.871 127.371 455.978 133.578C451.901 140.079 447.561 143.736 443.261 143.736V151.736ZM471.691 114.786L443.589 55.294L436.356 58.7108L464.457 118.203L471.691 114.786ZM443.587 55.29C440.936 49.6924 436.585 41.6777 428.356 38.9985L425.879 46.6054C430.505 48.1116 433.628 52.9521 436.357 58.7147L443.587 55.29ZM431.117 42.8019V42.3535H423.117V42.8019H431.117ZM537.064 38.766L536.901 34.7693L536.9 34.7694L537.064 38.766ZM511.504 58.3477H507.504V61.6123L510.702 62.2666L511.504 58.3477ZM521.818 71.6513L517.826 71.3852L517.823 71.4349L517.821 71.4847L521.818 71.6513ZM521.519 78.8262L517.522 78.6597L517.519 78.7429V78.8262H521.519ZM549.919 107.975L546.182 106.551L546.163 106.599L546.146 106.649L549.919 107.975ZM563.672 99.0058L563.057 102.958L567.672 103.676V99.0058H563.672ZM563.672 98.5574H567.672V95.1434L564.3 94.6071L563.672 98.5574ZM553.208 85.8517L549.216 85.5969L549.214 85.6355L549.212 85.6741L553.208 85.8517ZM553.656 78.8262L557.648 79.081L557.656 78.9538V78.8262H553.656ZM537.064 40.5598L536.904 36.563L536.86 36.5648L536.815 36.5676L537.064 40.5598ZM526.302 49.8274L529.88 51.6163L529.891 51.5945L529.901 51.5725L526.302 49.8274ZM511.504 57.8993L512.305 53.9804L507.504 52.9983V57.8993H511.504ZM506.236 78.8262C506.236 60.2843 518.149 43.5468 537.229 42.7626L536.9 34.7694C512.332 35.779 498.236 57.308 498.236 78.8262H506.236ZM537.227 42.7627C546.774 42.373 554.635 46.6792 560.225 53.4868C565.867 60.3585 569.089 69.689 569.089 78.8262H577.089C577.089 67.9334 573.285 56.7853 566.408 48.4102C559.479 39.971 549.328 34.2621 536.901 34.7693L537.227 42.7627ZM569.089 78.8262C569.089 87.5286 565.831 96.5722 560.211 103.395C554.623 110.177 546.87 114.587 537.812 114.587V122.587C549.68 122.587 559.566 116.758 566.385 108.481C573.171 100.244 577.089 89.4066 577.089 78.8262H569.089ZM537.812 114.587C519.309 114.587 506.236 96.9267 506.236 78.8262H498.236C498.236 99.8891 513.564 122.587 537.812 122.587V114.587ZM510.702 62.2666C515.407 63.2289 518.136 66.7434 517.826 71.3852L525.809 71.9173C526.396 63.1061 520.754 56.1571 512.305 54.4288L510.702 62.2666ZM517.821 71.4847L517.522 78.6597L525.515 78.9928L525.814 71.8178L517.821 71.4847ZM517.519 78.8262C517.519 84.7866 516.928 94.94 518.811 103.372C519.767 107.655 521.446 111.974 524.53 115.26C527.74 118.679 532.16 120.644 537.812 120.644V112.644C534.195 112.644 531.945 111.47 530.363 109.784C528.654 107.964 527.418 105.211 526.618 101.628C524.988 94.3272 525.519 85.5715 525.519 78.8262H517.519ZM537.812 120.644C541.87 120.644 545.345 119.708 548.15 117.557C550.915 115.437 552.577 112.478 553.693 109.3L546.146 106.649C545.319 109.002 544.365 110.378 543.281 111.209C542.237 112.011 540.63 112.644 537.812 112.644V120.644ZM553.657 109.398C554.653 106.786 555.988 105.04 557.444 104.034C558.826 103.079 560.614 102.578 563.057 102.958L564.286 95.0533C560.002 94.3869 556.11 95.2317 552.896 97.4528C549.756 99.6229 547.578 102.885 546.182 106.551L553.657 109.398ZM567.672 99.0058V98.5574H559.672V99.0058H567.672ZM564.3 94.6071C561.859 94.2188 560.082 93.1554 558.938 91.779C557.801 90.41 557.095 88.4947 557.204 86.0293L549.212 85.6741C549.023 89.9353 550.259 93.8496 552.784 96.8902C555.303 99.9234 558.907 101.85 563.043 102.508L564.3 94.6071ZM557.2 86.1065L557.648 79.081L549.665 78.5714L549.216 85.5969L557.2 86.1065ZM557.656 78.8262C557.656 72.9823 558.209 62.5593 556.271 53.8877C555.291 49.5019 553.583 45.0633 550.452 41.7374C547.174 38.2542 542.654 36.333 536.904 36.563L537.224 44.5566C540.817 44.4128 543.043 45.5373 544.627 47.2204C546.359 49.0608 547.631 51.9093 548.464 55.6327C550.15 63.1796 549.656 72.2635 549.656 78.8262H557.656ZM536.815 36.5676C529.759 37.0086 525.247 42.835 522.703 48.0823L529.901 51.5725C532.14 46.9543 534.803 44.7089 537.314 44.552L536.815 36.5676ZM522.724 48.0386C521.501 50.4847 519.937 52.1754 518.255 53.1418C516.627 54.0774 514.673 54.4648 512.305 53.9804L510.702 61.8181C514.911 62.6791 518.862 62.0201 522.241 60.0782C525.567 58.1671 528.113 55.1493 529.88 51.6163L522.724 48.0386ZM507.504 57.8993V58.3477H515.504V57.8993H507.504ZM575.004 42.503H571.004V45.982L574.449 46.4643L575.004 42.503ZM575.004 42.204L574.719 38.2142L571.004 38.4796V42.204H575.004ZM600.116 40.2608H604.116V35.8878L599.76 36.2767L600.116 40.2608ZM641.073 50.4253L642.312 54.2288L646.142 52.9818L644.868 49.1605L641.073 50.4253ZM640.924 49.9769L644.719 48.712L643.454 44.9173L639.659 46.1822L640.924 49.9769ZM623.435 44.8946L620.235 47.2946L620.249 47.3141L620.264 47.3335L623.435 44.8946ZM621.641 42.503H617.641V43.8363L618.441 44.903L621.641 42.503ZM621.641 42.204L621.356 38.2142L617.641 38.4796V42.204H621.641ZM646.753 40.2608H650.753V35.8878L646.398 36.2767L646.753 40.2608ZM655.423 114.851H659.423V111.381L655.989 110.891L655.423 114.851ZM655.423 115.299L655.658 119.292L659.423 119.071V115.299H655.423ZM632.553 117.093H628.553V121.504L632.943 121.074L632.553 117.093ZM632.553 92.2793H636.553L628.87 90.7193L632.553 92.2793ZM579.004 42.503V42.204H571.004V42.503H579.004ZM575.289 46.1939C583.654 45.5964 592.06 44.996 600.472 44.245L599.76 36.2767C591.431 37.0204 583.096 37.6159 574.719 38.2142L575.289 46.1939ZM596.116 40.2608V92.2793H604.116V40.2608H596.116ZM596.116 92.2793C596.116 96.5942 596.221 102.311 598.159 106.984C599.17 109.421 600.745 111.755 603.198 113.455C605.664 115.165 608.695 116.01 612.224 116.01V108.01C609.998 108.01 608.638 107.492 607.755 106.88C606.859 106.259 606.126 105.313 605.549 103.92C604.31 100.932 604.116 96.7836 604.116 92.2793H596.116ZM612.224 116.01C615.68 116.01 618.769 114.352 621.236 112.34C623.748 110.292 625.999 107.57 627.869 104.704C631.514 99.1171 634.311 92.0292 634.311 86.7486H626.311C626.311 89.8388 624.399 95.3818 621.169 100.333C619.601 102.736 617.872 104.761 616.18 106.141C614.442 107.557 613.103 108.01 612.224 108.01V116.01ZM634.311 86.7486V65.0742H626.311V86.7486H634.311ZM634.311 65.0742C634.311 60.1273 637.485 55.8002 642.312 54.2288L639.835 46.6219C631.806 49.2359 626.311 56.5681 626.311 65.0742H634.311ZM644.868 49.1605L644.719 48.712L637.129 51.2418L637.279 51.6902L644.868 49.1605ZM639.659 46.1822C638.251 46.6515 636.884 46.8738 635.543 46.8738V54.8738C637.789 54.8738 640.009 54.4981 642.189 53.7716L639.659 46.1822ZM635.543 46.8738C632.122 46.8738 628.82 45.3355 626.605 42.4558L620.264 47.3335C624.028 52.2266 629.695 54.8738 635.543 54.8738V46.8738ZM626.635 42.4946L624.841 40.103L618.441 44.903L620.235 47.2946L626.635 42.4946ZM625.641 42.503V42.204H617.641V42.503H625.641ZM621.926 46.1939C630.291 45.5964 638.697 44.996 647.109 44.245L646.398 36.2767C638.068 37.0204 629.733 37.6159 621.356 38.2142L621.926 46.1939ZM642.753 40.2608V103.64H650.753V40.2608H642.753ZM642.753 103.64C642.753 107.163 643.028 110.863 645.062 113.777C647.259 116.925 650.787 118.229 654.858 118.81L655.989 110.891C652.735 110.426 651.928 109.637 651.622 109.198C651.151 108.524 650.753 107.142 650.753 103.64H642.753ZM651.423 114.851V115.299H659.423V114.851H651.423ZM655.188 111.306C647.513 111.757 639.838 112.359 632.163 113.112L632.943 121.074C640.515 120.331 648.087 119.737 655.658 119.292L655.188 111.306ZM636.553 117.093V92.2793H628.553V117.093H636.553ZM628.87 90.7193C623.701 102.924 614.256 113.541 601.163 113.541V121.541C619.161 121.541 630.643 107.046 636.236 93.8393L628.87 90.7193ZM601.163 113.541C597.627 113.541 595.303 112.677 593.693 111.496C592.057 110.297 590.813 108.516 589.895 106.115C587.98 101.112 587.823 94.4386 587.823 87.7949H579.823C579.823 94.1559 579.89 102.355 582.423 108.974C583.728 112.384 585.763 115.602 588.962 117.948C592.187 120.312 596.253 121.541 601.163 121.541V113.541ZM587.823 87.7949V55.0592H579.823V87.7949H587.823ZM587.823 55.0592C587.823 51.4779 587.523 47.6278 585.651 44.4898C583.579 41.0161 580.097 39.177 575.558 38.5416L574.449 46.4643C577.385 46.8753 578.312 47.8016 578.781 48.588C579.45 49.7101 579.823 51.6149 579.823 55.0592H587.823ZM663.437 105.284C663.437 101.962 665.981 99.4183 669.303 99.4183V91.4183C661.563 91.4183 655.437 97.5441 655.437 105.284H663.437ZM669.303 99.4183C672.664 99.4183 675.168 101.853 675.168 105.284H683.168C683.168 97.3548 677.002 91.4183 669.303 91.4183V99.4183ZM675.168 105.284C675.168 108.526 672.705 111 669.303 111V119C676.962 119 683.168 113.104 683.168 105.284H675.168ZM669.303 111C666.091 111 663.437 108.267 663.437 105.284H655.437C655.437 112.764 661.752 119 669.303 119V111Z" fill="black" mask="url(#path-1-outside-1_72_81)"/>
</svg>
