<svg width="422" height="123" viewBox="0 0 422 123" fill="none" xmlns="http://www.w3.org/2000/svg">
<mask id="path-1-outside-1_72_47" maskUnits="userSpaceOnUse" x="0" y="0" width="422" height="123" fill="black">
<rect fill="white" width="422" height="123"/>
<path d="M4.25274 42.8019V42.3535H36.6895C30.4115 43.6988 27.1229 48.0337 29.6641 54.7602L46.5551 101.397L62.5493 57.6003C60.905 51.0232 58.6629 44.8946 51.7869 42.8019V42.3535H84.8216L83.0278 44.8946C79.1414 50.4253 72.2654 53.2654 65.5389 52.2191V52.6675C72.1159 53.7139 77.9456 58.4972 79.8888 64.9247L91.0997 101.547L109.934 51.7706C112.027 46.3894 105.749 43.5493 100.666 42.503V42.3535H121.593V42.9514C115.764 45.0441 113.073 49.5285 110.831 55.2086L87.0638 117.541H80.7857L63.7451 59.992L42.9676 117.541H37.138L35.9422 114.253C33.5505 107.975 36.3906 102.294 42.6687 100.052L42.5192 99.7532C41.0244 100.351 39.5296 100.501 38.1843 100.501C33.7 100.501 29.963 97.9595 28.3188 93.1762L15.3141 57.6003C13.2214 51.6212 10.8298 45.0441 4.25274 42.8019ZM117.617 78.8262C117.617 58.7961 130.622 39.6629 152.445 38.766C174.419 37.8692 188.47 58.7961 188.47 78.8262C188.47 98.1089 174.12 118.587 153.193 118.587C131.817 118.587 117.617 98.4079 117.617 78.8262ZM126.885 58.3477C133.462 59.693 137.647 64.9247 137.199 71.6513L136.9 78.8262C136.9 91.5319 134.657 116.644 153.193 116.644C160.069 116.644 163.357 113.505 165.301 107.975C167.692 101.696 172.326 97.9595 179.053 99.0058V98.5574C172.475 97.511 168.29 92.5782 168.589 85.8517L169.037 78.8262C169.037 66.4195 171.13 39.8124 152.445 40.5598C147.662 40.8587 144.075 44.8946 141.683 49.8274C138.693 55.8066 133.462 59.2446 126.885 57.8993V58.3477ZM199.368 55.0592C199.368 48.1832 198.172 43.5493 190.847 42.503V42.204C198.471 41.6061 206.244 41.0082 213.867 40.2608V40.4103C213.867 47.1368 211.475 55.5076 208.187 61.3373L208.486 61.4867C211.774 55.6571 217.604 49.08 223.434 45.7915C228.516 42.503 233.598 41.1577 239.727 41.1577C246.304 41.1577 252.133 45.0441 252.133 52.2191C252.133 57.4508 248.695 60.5899 243.464 60.5899C234.047 60.5899 238.232 53.1159 238.232 49.379C238.232 45.4925 235.99 44.1472 233.299 44.1472C231.206 44.1472 228.964 44.8946 227.171 45.7915C215.362 52.2191 215.81 66.4195 215.81 78.2283V100.8C215.81 107.227 217.155 113.356 224.181 115H191.445L192.94 112.907C195.78 108.722 200.414 106.629 205.048 106.629C206.692 106.629 208.336 106.779 209.981 107.377L210.13 106.928C203.702 104.985 199.368 99.3048 199.368 92.4288V55.0592ZM251.854 7.97348V7.824C260.225 7.37556 268.745 6.32921 276.967 4.9839V100.8C276.967 107.526 278.013 112.758 285.039 114.701V115H252.602V114.701C259.627 112.608 260.674 107.676 260.674 100.8V20.6791C260.674 13.9526 258.88 9.16931 251.854 7.97348ZM295.651 94.372L282.497 74.6408L303.424 55.0592C309.702 49.08 300.584 43.5493 294.157 42.503V42.3535H326.295V42.503C320.614 43.8483 315.233 46.2399 307.61 53.8633L294.904 66.1206L320.614 105.284C323.156 109.32 325.996 112.758 330.48 114.552V115H296.249L296.847 113.804C299.837 107.825 306.414 103.64 313.14 103.191L312.991 102.892C306.264 103.191 299.388 100.052 295.651 94.372ZM334.404 60.4404C334.404 48.3326 343.821 41.3072 354.733 39.065C361.758 37.8692 370.428 39.6629 378.799 45.0441C381.489 46.6884 384.629 43.1009 385.824 40.8587H385.974V57.8993H385.226C382.984 53.2654 380.892 49.08 377.454 46.6884C371.175 42.3535 365.047 40.4103 359.516 40.4103C357.124 40.4103 354.733 40.8587 352.491 41.6061C348.305 43.1009 345.017 48.7811 347.109 56.8529C348.455 62.3836 348.305 68.0638 344.568 72.2492L344.718 72.5481C347.558 69.4091 351.594 67.6154 355.48 67.6154C356.975 67.6154 358.47 67.9143 359.815 68.3627C374.016 72.8471 391.654 79.4241 391.654 95.1194C391.654 110.366 380.742 117.691 366.841 117.691C359.068 117.691 351.743 115.299 344.867 112.16C341.429 110.665 337.991 113.505 335.899 116.345H335.749V95.2689H336.646C340.383 102.593 343.821 109.469 348.604 111.861C354.434 114.851 360.861 116.196 366.093 116.196C369.681 116.196 372.67 115.598 374.763 114.552C377.753 112.907 379.098 106.181 378.051 99.1553C377.304 93.6246 378.201 87.7949 382.237 83.759L381.938 83.4601C378.948 86.4496 375.062 87.9444 371.026 87.9444C369.531 87.9444 368.036 87.7949 366.542 87.3465C352.491 82.7127 334.404 75.6872 334.404 60.4404ZM397.437 105.284C397.437 99.7532 401.772 95.4183 407.302 95.4183C412.833 95.4183 417.168 99.6037 417.168 105.284C417.168 110.815 412.833 115 407.302 115C401.921 115 397.437 110.516 397.437 105.284Z"/>
</mask>
<path d="M4.25274 42.8019H0.252737V45.6644L2.96204 46.588L4.25274 42.8019ZM4.25274 42.3535V38.3535H0.252737V42.3535H4.25274ZM36.6895 42.3535L37.5277 46.2647L36.6895 38.3535V42.3535ZM29.6641 54.7602L33.425 53.3981L33.4156 53.3723L33.406 53.3466L29.6641 54.7602ZM46.5551 101.397L42.7942 102.76L46.5396 113.101L50.3124 102.77L46.5551 101.397ZM62.5493 57.6003L66.3066 58.9724L66.7274 57.8202L66.4299 56.6302L62.5493 57.6003ZM51.7869 42.8019H47.7869V45.7657L50.6222 46.6286L51.7869 42.8019ZM51.7869 42.3535V38.3535H47.7869V42.3535H51.7869ZM84.8216 42.3535L88.0895 44.6602L92.5413 38.3535H84.8216V42.3535ZM83.0278 44.8946L79.76 42.5879L79.7551 42.5949L83.0278 44.8946ZM65.5389 52.2191L66.1537 48.2666L61.5389 47.5488V52.2191H65.5389ZM65.5389 52.6675H61.5389V56.0815L64.9104 56.6178L65.5389 52.6675ZM79.8888 64.9247L76.0599 66.0823L76.064 66.0956L79.8888 64.9247ZM91.0997 101.547L87.2749 102.718L90.6999 113.906L94.8408 102.963L91.0997 101.547ZM109.934 51.7706L106.206 50.3209L106.199 50.3379L106.193 50.3551L109.934 51.7706ZM100.666 42.503H96.6663V45.7634L99.8597 46.4208L100.666 42.503ZM100.666 42.3535V38.3535H96.6663V42.3535H100.666ZM121.593 42.3535H125.593V38.3535H121.593V42.3535ZM121.593 42.9514L122.945 46.7162L125.593 45.7654V42.9514H121.593ZM110.831 55.2086L107.11 53.74L107.102 53.7617L107.093 53.7835L110.831 55.2086ZM87.0638 117.541V121.541H89.8195L90.8013 118.966L87.0638 117.541ZM80.7857 117.541L76.9503 118.677L77.7984 121.541H80.7857V117.541ZM63.7451 59.992L67.5805 58.8563L64.1208 47.1722L59.9828 58.6336L63.7451 59.992ZM42.9676 117.541V121.541H45.7762L46.7299 118.899L42.9676 117.541ZM37.138 117.541L33.3788 118.908L34.3363 121.541H37.138V117.541ZM35.9422 114.253L39.7013 112.886L39.6909 112.857L39.6801 112.829L35.9422 114.253ZM42.6687 100.052L44.014 103.819L48.2651 102.301L46.2464 98.2633L42.6687 100.052ZM42.5192 99.7532L46.0969 97.9644L44.451 94.6724L41.0336 96.0393L42.5192 99.7532ZM28.3188 93.1762L32.1015 91.8758L32.0889 91.8392L32.0756 91.8028L28.3188 93.1762ZM15.3141 57.6003L11.5387 58.9217L11.5478 58.9477L11.5573 58.9736L15.3141 57.6003ZM8.25274 42.8019V42.3535H0.252737V42.8019H8.25274ZM4.25274 46.3535H36.6895V38.3535H4.25274V46.3535ZM35.8514 38.4423C32.0624 39.2542 28.5166 41.1091 26.464 44.4408C24.3498 47.8726 24.3467 52.0034 25.9222 56.1738L33.406 53.3466C32.4403 50.7905 32.8109 49.3906 33.2752 48.637C33.8011 47.7833 35.0386 46.7981 37.5277 46.2647L35.8514 38.4423ZM25.9031 56.1223L42.7942 102.76L50.316 100.035L33.425 53.3981L25.9031 56.1223ZM50.3124 102.77L66.3066 58.9724L58.792 56.2282L42.7978 100.025L50.3124 102.77ZM66.4299 56.6302C64.8007 50.1134 62.1453 41.7734 52.9515 38.9752L50.6222 46.6286C55.1804 48.0159 57.0094 51.9331 58.6687 58.5704L66.4299 56.6302ZM55.7869 42.8019V42.3535H47.7869V42.8019H55.7869ZM51.7869 46.3535H84.8216V38.3535H51.7869V46.3535ZM81.5537 40.0468L79.76 42.5879L86.2957 47.2014L88.0895 44.6602L81.5537 40.0468ZM79.7551 42.5949C76.7684 46.8451 71.4175 49.0854 66.1537 48.2666L64.924 56.1715C73.1133 57.4454 81.5144 54.0056 86.3006 47.1944L79.7551 42.5949ZM61.5389 52.2191V52.6675H69.5389V52.2191H61.5389ZM64.9104 56.6178C70.0759 57.4396 74.5895 61.2184 76.06 66.0823L83.7176 63.7672C81.3017 55.7759 74.156 49.9881 66.1673 48.7172L64.9104 56.6178ZM76.064 66.0956L87.2749 102.718L94.9245 100.376L83.7136 63.7539L76.064 66.0956ZM94.8408 102.963L113.675 53.1862L106.193 50.3551L87.3585 100.131L94.8408 102.963ZM113.662 53.2204C114.496 51.0765 114.583 48.8905 113.848 46.8461C113.142 44.8845 111.813 43.4179 110.449 42.3555C107.798 40.2908 104.258 39.1586 101.473 38.5852L99.8597 46.4208C102.157 46.8937 104.297 47.7048 105.533 48.667C106.112 49.118 106.277 49.4359 106.319 49.5529C106.332 49.5872 106.419 49.7742 106.206 50.3209L113.662 53.2204ZM104.666 42.503V42.3535H96.6663V42.503H104.666ZM100.666 46.3535H121.593V38.3535H100.666V46.3535ZM117.593 42.3535V42.9514H125.593V42.3535H117.593ZM120.242 39.1866C112.74 41.8795 109.472 47.7561 107.11 53.74L114.551 56.6773C116.674 51.3009 118.787 48.2087 122.945 46.7162L120.242 39.1866ZM107.093 53.7835L83.3262 116.116L90.8013 118.966L114.568 56.6338L107.093 53.7835ZM87.0638 113.541H80.7857V121.541H87.0638V113.541ZM84.6211 116.405L67.5805 58.8563L59.9097 61.1276L76.9503 118.677L84.6211 116.405ZM59.9828 58.6336L39.2053 116.183L46.7299 118.899L67.5074 61.3503L59.9828 58.6336ZM42.9676 113.541H37.138V121.541H42.9676V113.541ZM40.8972 116.174L39.7013 112.886L32.183 115.62L33.3788 118.908L40.8972 116.174ZM39.6801 112.829C38.8267 110.588 38.9953 108.752 39.6587 107.373C40.3313 105.976 41.7107 104.642 44.014 103.819L41.3233 96.2852C37.3486 97.7048 34.1689 100.332 32.4499 103.904C30.7215 107.496 30.666 111.639 32.2042 115.677L39.6801 112.829ZM46.2464 98.2633L46.0969 97.9644L38.9415 101.542L39.091 101.841L46.2464 98.2633ZM41.0336 96.0393C40.1824 96.3798 39.2449 96.5006 38.1843 96.5006V104.501C39.8144 104.501 41.8664 104.322 44.0048 103.467L41.0336 96.0393ZM38.1843 96.5006C35.4577 96.5006 33.2069 95.0915 32.1015 91.8758L24.536 94.4765C26.7191 100.827 31.9422 104.501 38.1843 104.501V96.5006ZM32.0756 91.8028L19.071 56.227L11.5573 58.9736L24.5619 94.5495L32.0756 91.8028ZM19.0896 56.2789C17.1374 50.7011 14.2527 41.985 5.54343 39.0159L2.96204 46.588C7.40687 48.1033 9.30553 52.5412 11.5387 58.9217L19.0896 56.2789ZM152.445 38.766L152.282 34.7693L152.281 34.7694L152.445 38.766ZM126.885 58.3477H122.885V61.6123L126.083 62.2666L126.885 58.3477ZM137.199 71.6513L133.207 71.3852L133.204 71.4349L133.202 71.4847L137.199 71.6513ZM136.9 78.8262L132.903 78.6597L132.9 78.7429V78.8262H136.9ZM165.301 107.975L161.563 106.551L161.544 106.599L161.527 106.649L165.301 107.975ZM179.053 99.0058L178.438 102.958L183.053 103.676V99.0058H179.053ZM179.053 98.5574H183.053V95.1434L179.681 94.6071L179.053 98.5574ZM168.589 85.8517L164.597 85.5969L164.595 85.6355L164.593 85.6741L168.589 85.8517ZM169.037 78.8262L173.029 79.081L173.037 78.9538V78.8262H169.037ZM152.445 40.5598L152.286 36.563L152.241 36.5648L152.196 36.5676L152.445 40.5598ZM141.683 49.8274L145.261 51.6163L145.272 51.5945L145.282 51.5725L141.683 49.8274ZM126.885 57.8993L127.686 53.9804L122.885 52.9983V57.8993H126.885ZM121.617 78.8262C121.617 60.2843 133.53 43.5468 152.61 42.7626L152.281 34.7694C127.713 35.779 113.617 57.308 113.617 78.8262H121.617ZM152.609 42.7627C162.155 42.373 170.016 46.6792 175.606 53.4868C181.248 60.3585 184.47 69.689 184.47 78.8262H192.47C192.47 67.9334 188.666 56.7853 181.789 48.4102C174.86 39.971 164.709 34.2621 152.282 34.7693L152.609 42.7627ZM184.47 78.8262C184.47 87.5286 181.212 96.5722 175.592 103.395C170.004 110.177 162.251 114.587 153.193 114.587V122.587C165.061 122.587 174.947 116.758 181.766 108.481C188.552 100.244 192.47 89.4066 192.47 78.8262H184.47ZM153.193 114.587C134.69 114.587 121.617 96.9267 121.617 78.8262H113.617C113.617 99.8891 128.945 122.587 153.193 122.587V114.587ZM126.083 62.2666C130.788 63.2289 133.517 66.7434 133.207 71.3852L141.19 71.9173C141.777 63.1061 136.135 56.1571 127.686 54.4288L126.083 62.2666ZM133.202 71.4847L132.903 78.6597L140.896 78.9928L141.195 71.8178L133.202 71.4847ZM132.9 78.8262C132.9 84.7866 132.309 94.94 134.192 103.372C135.148 107.655 136.827 111.974 139.911 115.26C143.121 118.679 147.541 120.644 153.193 120.644V112.644C149.576 112.644 147.326 111.47 145.744 109.784C144.035 107.964 142.799 105.211 141.999 101.628C140.369 94.3272 140.9 85.5715 140.9 78.8262H132.9ZM153.193 120.644C157.251 120.644 160.726 119.708 163.531 117.557C166.296 115.437 167.958 112.478 169.074 109.3L161.527 106.649C160.7 109.002 159.746 110.378 158.662 111.209C157.618 112.011 156.011 112.644 153.193 112.644V120.644ZM169.038 109.398C170.034 106.786 171.369 105.04 172.825 104.034C174.207 103.079 175.995 102.578 178.438 102.958L179.667 95.0533C175.383 94.3869 171.491 95.2317 168.277 97.4528C165.137 99.6229 162.959 102.885 161.563 106.551L169.038 109.398ZM183.053 99.0058V98.5574H175.053V99.0058H183.053ZM179.681 94.6071C177.24 94.2188 175.463 93.1554 174.319 91.779C173.182 90.41 172.476 88.4947 172.585 86.0293L164.593 85.6741C164.404 89.9353 165.64 93.8496 168.165 96.8902C170.684 99.9234 174.288 101.85 178.424 102.508L179.681 94.6071ZM172.581 86.1065L173.029 79.081L165.046 78.5714L164.597 85.5969L172.581 86.1065ZM173.037 78.8262C173.037 72.9823 173.59 62.5593 171.652 53.8877C170.672 49.5019 168.964 45.0633 165.833 41.7374C162.555 38.2542 158.035 36.333 152.286 36.563L152.605 44.5566C156.198 44.4128 158.424 45.5373 160.008 47.2204C161.74 49.0608 163.012 51.9093 163.845 55.6327C165.531 63.1796 165.037 72.2635 165.037 78.8262H173.037ZM152.196 36.5676C145.14 37.0086 140.628 42.835 138.084 48.0823L145.282 51.5725C147.521 46.9543 150.184 44.7089 152.695 44.552L152.196 36.5676ZM138.105 48.0386C136.882 50.4847 135.318 52.1754 133.636 53.1418C132.008 54.0774 130.054 54.4648 127.686 53.9804L126.083 61.8181C130.292 62.6791 134.243 62.0201 137.622 60.0782C140.948 58.1671 143.494 55.1493 145.261 51.6163L138.105 48.0386ZM122.885 57.8993V58.3477H130.885V57.8993H122.885ZM190.847 42.503H186.847V45.9722L190.282 46.4628L190.847 42.503ZM190.847 42.204L190.535 38.2163L186.847 38.5055V42.204H190.847ZM213.867 40.2608H217.867V35.8495L213.477 36.2799L213.867 40.2608ZM208.187 61.3373L204.703 59.372L202.637 63.0344L206.398 64.915L208.187 61.3373ZM208.486 61.4867L206.697 65.0644L210.1 66.7661L211.97 63.452L208.486 61.4867ZM223.434 45.7915L225.399 49.2754L225.505 49.2158L225.607 49.1498L223.434 45.7915ZM227.171 45.7915L225.382 42.2138L225.319 42.2449L225.258 42.2782L227.171 45.7915ZM224.181 115V119L225.093 111.105L224.181 115ZM191.445 115L188.19 112.675L183.672 119H191.445V115ZM192.94 112.907L196.195 115.232L196.223 115.193L196.25 115.153L192.94 112.907ZM209.981 107.377L208.614 111.136L212.476 112.54L213.775 108.642L209.981 107.377ZM210.13 106.928L213.925 108.193L215.226 104.29L211.288 103.099L210.13 106.928ZM203.368 55.0592C203.368 51.5774 203.108 47.7604 201.336 44.6267C199.356 41.1231 195.954 39.1918 191.413 38.5432L190.282 46.4628C193.065 46.8605 193.923 47.7693 194.372 48.5632C195.03 49.727 195.368 51.665 195.368 55.0592H203.368ZM194.847 42.503V42.204H186.847V42.503H194.847ZM191.16 46.1918C198.77 45.5949 206.587 44.9937 214.257 44.2417L213.477 36.2799C205.9 37.0227 198.171 37.6173 190.535 38.2163L191.16 46.1918ZM209.867 40.2608V40.4103H217.867V40.2608H209.867ZM209.867 40.4103C209.867 46.3834 207.686 54.0829 204.703 59.372L211.671 63.3025C215.264 56.9323 217.867 47.8903 217.867 40.4103H209.867ZM206.398 64.915L206.697 65.0644L210.275 57.909L209.976 57.7596L206.398 64.915ZM211.97 63.452C215 58.0798 220.361 52.1171 225.399 49.2754L221.468 42.3076C214.847 46.0429 208.548 53.2344 205.002 59.5215L211.97 63.452ZM225.607 49.1498C229.976 46.3226 234.287 45.1577 239.727 45.1577V37.1577C232.909 37.1577 227.056 38.6834 221.261 42.4332L225.607 49.1498ZM239.727 45.1577C242.269 45.1577 244.423 45.9127 245.861 47.0913C247.211 48.1984 248.133 49.8275 248.133 52.2191H256.133C256.133 47.4357 254.141 43.5341 250.932 40.9042C247.811 38.3459 243.762 37.1577 239.727 37.1577V45.1577ZM248.133 52.2191C248.133 53.9285 247.596 54.905 247.005 55.4673C246.387 56.054 245.286 56.5899 243.464 56.5899V64.5899C246.873 64.5899 250.107 63.5562 252.516 61.2655C254.952 58.9503 256.133 55.7414 256.133 52.2191H248.133ZM243.464 56.5899C241.534 56.5899 241.11 56.1894 241.2 56.2623C241.426 56.4469 241.337 56.6384 241.31 56.1621C241.277 55.5695 241.395 54.7541 241.647 53.4917C241.844 52.5099 242.232 50.8198 242.232 49.379H234.232C234.232 49.8066 234.097 50.4521 233.803 51.9228C233.565 53.1127 233.225 54.8664 233.323 56.6094C233.427 58.4687 234.057 60.7623 236.147 62.465C238.101 64.0561 240.685 64.5899 243.464 64.5899V56.5899ZM242.232 49.379C242.232 46.6592 241.425 44.142 239.477 42.3571C237.597 40.6331 235.252 40.1472 233.299 40.1472V48.1472C234.037 48.1472 234.159 48.334 234.072 48.2543C234.029 48.215 234.05 48.2079 234.094 48.3264C234.146 48.4634 234.232 48.785 234.232 49.379H242.232ZM233.299 40.1472C230.356 40.1472 227.481 41.1643 225.382 42.2138L228.959 49.3692C230.448 48.625 232.057 48.1472 233.299 48.1472V40.1472ZM225.258 42.2782C218.058 46.1971 214.704 52.5147 213.167 59.0807C211.674 65.4614 211.81 72.4969 211.81 78.2283H219.81C219.81 72.1509 219.722 66.1818 220.957 60.9032C222.149 55.8099 224.474 51.8135 229.083 49.3048L225.258 42.2782ZM211.81 78.2283V100.8H219.81V78.2283H211.81ZM211.81 100.8C211.81 104.187 212.145 108.056 213.752 111.418C215.476 115.025 218.544 117.789 223.269 118.895L225.093 111.105C222.793 110.567 221.675 109.444 220.97 107.969C220.148 106.249 219.81 103.839 219.81 100.8H211.81ZM224.181 111H191.445V119H224.181V111ZM194.7 117.325L196.195 115.232L189.685 110.582L188.19 112.675L194.7 117.325ZM196.25 115.153C198.267 112.18 201.594 110.629 205.048 110.629V102.629C199.234 102.629 193.293 105.263 189.63 110.661L196.25 115.153ZM205.048 110.629C206.459 110.629 207.583 110.761 208.614 111.136L211.348 103.617C209.089 102.796 206.925 102.629 205.048 102.629V110.629ZM213.775 108.642L213.925 108.193L206.335 105.663L206.186 106.112L213.775 108.642ZM211.288 103.099C206.524 101.659 203.368 97.5169 203.368 92.4288H195.368C195.368 101.093 200.881 108.311 208.972 110.757L211.288 103.099ZM203.368 92.4288V55.0592H195.368V92.4288H203.368ZM251.854 7.97348H247.854V11.3502L251.183 11.9168L251.854 7.97348ZM251.854 7.824L251.64 3.82973L247.854 4.03255V7.824H251.854ZM276.967 4.98391H280.967V0.276159L276.321 1.03641L276.967 4.98391ZM285.039 114.701H289.039V111.657L286.105 110.846L285.039 114.701ZM285.039 115V119H289.039V115H285.039ZM252.602 115H248.602V119H252.602V115ZM252.602 114.701L251.46 110.868L248.602 111.719V114.701H252.602ZM295.651 94.372L298.993 92.1735L298.986 92.1633L298.98 92.1532L295.651 94.372ZM282.497 74.6408L279.764 71.7201L277.288 74.0375L279.169 76.8596L282.497 74.6408ZM303.424 55.0592L306.157 57.9799L306.17 57.9679L306.183 57.9557L303.424 55.0592ZM294.157 42.503H290.157V45.9045L293.514 46.451L294.157 42.503ZM294.157 42.3535V38.3535H290.157V42.3535H294.157ZM326.295 42.3535H330.295V38.3535H326.295V42.3535ZM326.295 42.503L327.216 46.3953L330.295 45.6663V42.503H326.295ZM307.61 53.8633L310.387 56.7421L310.413 56.7172L310.438 56.6918L307.61 53.8633ZM294.904 66.1206L292.127 63.2418L289.741 65.5439L291.56 68.3158L294.904 66.1206ZM320.614 105.284L323.999 103.153L323.979 103.12L323.958 103.089L320.614 105.284ZM330.48 114.552H334.48V111.843L331.966 110.838L330.48 114.552ZM330.48 115V119H334.48V115H330.48ZM296.249 115L292.672 113.211L289.777 119H296.249V115ZM296.847 113.804L300.425 115.593L296.847 113.804ZM313.14 103.191L313.407 107.182L319.408 106.782L316.718 101.402L313.14 103.191ZM312.991 102.892L316.569 101.103L315.407 98.7809L312.813 98.8962L312.991 102.892ZM255.854 7.97348V7.824H247.854V7.97348H255.854ZM252.068 11.8183C260.62 11.3602 269.289 10.2935 277.613 8.9314L276.321 1.03641C268.202 2.36491 259.831 3.39096 251.64 3.82973L252.068 11.8183ZM272.967 4.98391V100.8H280.967V4.98391H272.967ZM272.967 100.8C272.967 104.232 273.204 108.006 274.757 111.265C276.453 114.823 279.477 117.313 283.972 118.556L286.105 110.846C283.575 110.146 282.563 109.048 281.979 107.823C281.252 106.299 280.967 104.093 280.967 100.8H272.967ZM281.039 114.701V115H289.039V114.701H281.039ZM285.039 111H252.602V119H285.039V111ZM256.602 115V114.701H248.602V115H256.602ZM253.744 118.535C258.144 117.224 261.163 114.817 262.872 111.287C264.439 108.051 264.674 104.297 264.674 100.8H256.674C256.674 104.179 256.385 106.328 255.672 107.801C255.101 108.979 254.085 110.086 251.46 110.868L253.744 118.535ZM264.674 100.8V20.6791H256.674V100.8H264.674ZM264.674 20.6791C264.674 17.0794 264.218 13.308 262.318 10.1771C260.276 6.81245 256.947 4.78286 252.526 4.03019L251.183 11.9168C253.787 12.3599 254.867 13.3199 255.479 14.3274C256.232 15.5688 256.674 17.5524 256.674 20.6791H264.674ZM298.98 92.1532L285.826 72.422L279.169 76.8596L292.323 96.5908L298.98 92.1532ZM285.23 77.5616L306.157 57.9799L300.691 52.1384L279.764 71.7201L285.23 77.5616ZM306.183 57.9557C308.334 55.9071 309.674 53.3745 309.523 50.5117C309.379 47.7755 307.912 45.6063 306.36 44.0798C303.321 41.0895 298.592 39.1723 294.799 38.555L293.514 46.451C296.149 46.88 299.193 48.2513 300.75 49.7828C301.496 50.5171 301.533 50.9171 301.534 50.9322C301.535 50.9422 301.535 50.9561 301.53 50.981C301.525 51.0067 301.51 51.063 301.468 51.1528C301.383 51.3363 301.17 51.6826 300.666 52.1626L306.183 57.9557ZM298.157 42.503V42.3535H290.157V42.503H298.157ZM294.157 46.3535H326.295V38.3535H294.157V46.3535ZM322.295 42.3535V42.503H330.295V42.3535H322.295ZM325.373 38.6107C318.917 40.1397 312.889 42.9275 304.781 51.0349L310.438 56.6918C317.578 49.5524 322.312 47.5569 327.216 46.3953L325.373 38.6107ZM304.833 50.9846L292.127 63.2418L297.681 68.9993L310.387 56.7421L304.833 50.9846ZM291.56 68.3158L317.271 107.479L323.958 103.089L298.248 63.9254L291.56 68.3158ZM317.229 107.415C319.912 111.676 323.32 115.996 328.994 118.265L331.966 110.838C328.671 109.52 326.399 106.964 323.999 103.153L317.229 107.415ZM326.48 114.552V115H334.48V114.552H326.48ZM330.48 111H296.249V119H330.48V111ZM299.827 116.789L300.425 115.593L293.27 112.015L292.672 113.211L299.827 116.789ZM300.425 115.593C302.746 110.952 308.019 107.542 313.407 107.182L312.874 99.2001C304.809 99.7377 296.928 104.698 293.27 112.015L300.425 115.593ZM316.718 101.402L316.569 101.103L309.413 104.681L309.563 104.98L316.718 101.402ZM312.813 98.8962C307.348 99.1391 301.878 96.5584 298.993 92.1735L292.31 96.5704C296.899 103.546 305.181 107.243 313.169 106.888L312.813 98.8962ZM354.733 39.065L354.062 35.1217L353.994 35.1331L353.928 35.1468L354.733 39.065ZM378.799 45.0441L376.636 48.4088L376.674 48.4335L376.713 48.4572L378.799 45.0441ZM385.824 40.8587V36.8587H383.424L382.295 38.9764L385.824 40.8587ZM385.974 40.8587H389.974V36.8587H385.974V40.8587ZM385.974 57.8993V61.8993H389.974V57.8993H385.974ZM385.226 57.8993L381.626 59.6415L382.718 61.8993H385.226V57.8993ZM377.454 46.6884L379.738 43.4047L379.726 43.3968L377.454 46.6884ZM352.491 41.6061L351.226 37.8114L351.185 37.8248L351.145 37.8391L352.491 41.6061ZM347.109 56.8529L350.996 55.9075L350.989 55.8782L350.981 55.8491L347.109 56.8529ZM344.568 72.2492L341.585 69.5851L339.777 71.61L340.991 74.038L344.568 72.2492ZM344.718 72.5481L341.14 74.337L343.757 79.5716L347.684 75.2318L344.718 72.5481ZM359.815 68.3627L358.55 72.1575L358.58 72.1675L358.611 72.1771L359.815 68.3627ZM344.867 112.16L346.528 108.521L346.495 108.506L346.462 108.492L344.867 112.16ZM335.899 116.345V120.345H337.92L339.119 118.718L335.899 116.345ZM335.749 116.345H331.749V120.345H335.749V116.345ZM335.749 95.2689V91.2689H331.749V95.2689H335.749ZM336.646 95.2689L340.209 93.451L339.096 91.2689H336.646V95.2689ZM348.604 111.861L350.429 108.302L350.411 108.292L350.393 108.283L348.604 111.861ZM374.763 114.552L376.552 118.129L376.622 118.094L376.691 118.056L374.763 114.552ZM378.051 99.1553L374.087 99.691L374.091 99.7178L374.095 99.7445L378.051 99.1553ZM382.237 83.759L385.065 86.5874L387.894 83.759L385.065 80.9306L382.237 83.759ZM381.938 83.4601L384.766 80.6316L381.938 77.8032L379.109 80.6316L381.938 83.4601ZM366.542 87.3465L365.289 91.1453L365.34 91.1622L365.392 91.1778L366.542 87.3465ZM338.404 60.4404C338.404 51.0205 345.585 45.0282 355.538 42.9831L353.928 35.1468C342.057 37.5861 330.404 45.6448 330.404 60.4404H338.404ZM355.404 43.0083C361.274 42.0091 368.945 43.465 376.636 48.4088L380.962 41.6794C371.911 35.8607 362.243 33.7292 354.062 35.1217L355.404 43.0083ZM376.713 48.4572C380.193 50.5836 383.557 48.9202 385.302 47.5863C387.132 46.1869 388.556 44.2372 389.354 42.7411L382.295 38.9764C382.12 39.3053 381.84 39.7407 381.486 40.1797C381.129 40.6222 380.764 40.9851 380.442 41.2314C380.1 41.4933 379.97 41.4989 380.069 41.4789C380.271 41.4379 380.615 41.4663 380.885 41.631L376.713 48.4572ZM385.824 44.8587H385.974V36.8587H385.824V44.8587ZM381.974 40.8587V57.8993H389.974V40.8587H381.974ZM385.974 53.8993H385.226V61.8993H385.974V53.8993ZM388.827 56.157C386.699 51.7599 384.196 46.506 379.738 43.4048L375.169 49.972C377.587 51.6541 379.269 54.7709 381.626 59.6415L388.827 56.157ZM379.726 43.3968C372.91 38.6901 366.003 36.4103 359.516 36.4103V44.4103C364.09 44.4103 369.441 46.0169 375.181 49.98L379.726 43.3968ZM359.516 36.4103C356.632 36.4103 353.812 36.9493 351.226 37.8114L353.756 45.4008C355.654 44.7682 357.617 44.4103 359.516 44.4103V36.4103ZM351.145 37.8391C344.402 40.2475 340.805 48.473 343.237 57.8568L350.981 55.8491C349.229 49.0892 352.208 45.9543 353.836 45.3731L351.145 37.8391ZM343.223 57.7983C344.444 62.8183 344.026 66.8512 341.585 69.5851L347.552 74.9132C352.585 69.2763 352.466 61.9489 350.996 55.9075L343.223 57.7983ZM340.991 74.038L341.14 74.337L348.296 70.7593L348.146 70.4603L340.991 74.038ZM347.684 75.2318C349.801 72.8918 352.776 71.6154 355.48 71.6154V63.6154C350.412 63.6154 345.315 65.9264 341.752 69.8645L347.684 75.2318ZM355.48 71.6154C356.459 71.6154 357.523 71.815 358.55 72.1575L361.08 64.568C359.417 64.0137 357.491 63.6154 355.48 63.6154V71.6154ZM358.611 72.1771C365.727 74.4243 373.174 77.0471 378.825 80.8543C384.372 84.5913 387.654 89.0796 387.654 95.1194H395.654C395.654 85.4639 390.117 78.8161 383.295 74.2196C376.576 69.6935 368.104 66.7856 361.02 64.5484L358.611 72.1771ZM387.654 95.1194C387.654 101.704 385.345 106.167 381.893 109.055C378.34 112.029 373.138 113.691 366.841 113.691V121.691C374.444 121.691 381.65 119.69 387.027 115.19C392.507 110.605 395.654 103.782 395.654 95.1194H387.654ZM366.841 113.691C359.882 113.691 353.159 111.548 346.528 108.521L343.206 115.799C350.327 119.05 358.253 121.691 366.841 121.691V113.691ZM346.462 108.492C343.251 107.096 340.183 107.858 337.907 109.146C335.701 110.396 333.923 112.284 332.678 113.973L339.119 118.718C339.967 117.567 340.955 116.614 341.849 116.108C342.676 115.64 343.045 115.729 343.272 115.828L346.462 108.492ZM335.899 112.345H335.749V120.345H335.899V112.345ZM339.749 116.345V95.2689H331.749V116.345H339.749ZM335.749 99.2689H336.646V91.2689H335.749V99.2689ZM333.083 97.0867C334.917 100.682 336.818 104.453 338.888 107.609C340.93 110.721 343.463 113.762 346.815 115.439L350.393 108.283C348.962 107.568 347.385 105.976 345.577 103.221C343.798 100.509 342.112 97.1803 340.209 93.451L333.083 97.0867ZM346.779 115.42C353.192 118.709 360.247 120.196 366.093 120.196V112.196C361.475 112.196 355.676 110.992 350.429 108.302L346.779 115.42ZM366.093 120.196C370.052 120.196 373.717 119.547 376.552 118.129L372.974 110.974C371.624 111.649 369.309 112.196 366.093 112.196V120.196ZM376.691 118.056C378.324 117.158 379.441 115.74 380.196 114.356C380.964 112.95 381.49 111.341 381.836 109.691C382.527 106.393 382.589 102.471 382.008 98.566L374.095 99.7445C374.56 102.865 374.473 105.819 374.006 108.051C373.772 109.167 373.467 109.987 373.174 110.524C372.868 111.084 372.696 111.123 372.835 111.047L376.691 118.056ZM382.015 98.6196C381.357 93.7441 382.258 89.395 385.065 86.5874L379.408 80.9306C374.144 86.1949 373.252 93.5051 374.087 99.691L382.015 98.6196ZM385.065 80.9306L384.766 80.6316L379.109 86.2885L379.408 86.5874L385.065 80.9306ZM379.109 80.6316C376.905 82.8359 374.052 83.9444 371.026 83.9444V91.9444C376.072 91.9444 380.991 90.0634 384.766 86.2885L379.109 80.6316ZM371.026 83.9444C369.797 83.9444 368.711 83.8211 367.691 83.5152L365.392 91.1778C367.362 91.7688 369.265 91.9444 371.026 91.9444V83.9444ZM367.794 83.5477C360.766 81.2297 353.213 78.4574 347.443 74.5588C341.723 70.6946 338.404 66.1924 338.404 60.4404H330.404C330.404 69.9352 336.128 76.5691 342.964 81.1878C349.75 85.7721 358.267 88.8295 365.289 91.1453L367.794 83.5477ZM401.437 105.284C401.437 101.962 403.981 99.4183 407.302 99.4183V91.4183C399.563 91.4183 393.437 97.5441 393.437 105.284H401.437ZM407.302 99.4183C410.664 99.4183 413.168 101.853 413.168 105.284H421.168C421.168 97.3548 415.002 91.4183 407.302 91.4183V99.4183ZM413.168 105.284C413.168 108.526 410.705 111 407.302 111V119C414.962 119 421.168 113.104 421.168 105.284H413.168ZM407.302 111C404.091 111 401.437 108.267 401.437 105.284H393.437C393.437 112.764 399.752 119 407.302 119V111Z" fill="black" mask="url(#path-1-outside-1_72_47)"/>
</svg>
